{"glyphs":{"0":{"ha":574,"x_min":81,"x_max":757,"o":"m 757 633 q 635 356 757 538 q 417 107 540 215 q 186 -7 286 -7 q 81 135 81 -7 q 110 275 81 208 q 344 568 178 432 q 681 714 524 714 q 757 633 757 714 m 729 635 q 699 685 729 685 q 375 419 593 685 q 163 53 163 160 q 199 19 163 19 q 529 263 326 19 q 729 635 729 501 z "},"1":{"ha":546,"x_min":69,"x_max":763,"o":"m 763 700 q 633 524 644 540 l 279 0 l 69 0 q 214 161 114 58 l 390 342 q 542 490 429 382 q 692 640 639 582 q 650 614 674 631 q 375 444 546 544 q 186 340 242 368 l 176 360 q 514 554 224 383 q 738 700 667 646 l 763 700 z "},"2":{"ha":583,"x_min":-58,"x_max":700,"o":"m 700 596 q 578 361 700 461 q 257 192 518 311 q 42 64 106 124 q 254 136 200 136 q 346 113 290 136 q 413 89 401 89 q 486 151 443 89 l 504 144 q 418 39 475 82 q 292 -7 357 -7 q 181 19 253 -7 q 69 44 108 44 q -11 19 19 44 q -46 -6 -39 -4 l -58 11 q 174 193 19 78 q 464 428 415 376 q 611 664 611 579 q 571 692 611 692 q 500 678 532 692 q 347 572 422 646 q 261 414 261 486 q 292 381 261 381 q 403 453 339 381 q 481 565 451 508 l 497 558 q 417 431 468 488 q 290 360 353 360 q 236 418 236 360 q 333 604 236 507 q 578 714 446 714 q 700 596 700 714 z "},"3":{"ha":528,"x_min":-42,"x_max":697,"o":"m 697 624 q 383 394 697 481 q 463 386 435 394 q 525 303 525 367 q 389 99 525 190 q 60 -6 235 -6 q -42 71 -42 -6 q -24 117 -42 97 q 21 136 -6 136 q 64 97 64 136 q 24 56 64 56 l 4 57 q -6 49 -6 57 q 38 24 -6 24 q 308 197 160 24 q 406 356 406 310 q 382 372 406 372 q 299 344 358 372 l 239 315 q 231 324 231 315 q 282 360 231 335 q 413 436 369 404 q 515 538 464 475 q 578 664 578 615 q 539 692 578 692 q 389 632 472 692 q 301 510 301 569 q 338 482 301 482 q 485 592 403 482 l 500 585 q 432 500 479 538 q 332 458 381 458 q 278 508 278 458 q 379 663 278 594 q 564 718 460 718 q 653 697 617 718 q 697 624 697 672 z "},"4":{"ha":601,"x_min":26,"x_max":814,"o":"m 814 693 l 694 596 q 246 289 603 521 l 103 194 q 228 210 168 210 q 358 201 294 210 q 472 300 397 233 q 572 383 561 376 l 601 382 q 471 190 536 317 q 489 189 476 189 q 561 200 514 189 l 567 181 q 457 167 533 164 l 369 0 l 151 0 q 168 18 163 11 q 336 179 215 74 q 224 186 274 186 q 38 149 115 186 l 26 165 q 99 221 65 193 q 363 471 221 325 q 578 693 558 675 l 814 693 z "},"5":{"ha":565,"x_min":-15,"x_max":728,"o":"m 728 706 q 496 575 624 575 q 400 589 453 575 l 274 422 q 454 499 385 499 q 540 472 506 499 q 578 392 578 442 q 435 128 578 254 q 85 -10 279 -10 q -15 68 -15 -10 q 4 119 -15 97 q 51 142 24 142 q 100 96 100 142 q 49 46 100 46 l 38 47 q 25 38 25 47 q 63 17 25 17 q 344 215 190 17 q 454 442 454 356 q 425 471 454 471 q 206 336 353 471 l 185 349 l 457 703 q 565 683 515 683 q 719 718 657 683 l 728 706 z "},"6":{"ha":574,"x_min":82,"x_max":792,"o":"m 792 639 q 772 590 792 613 q 726 568 753 568 q 681 615 681 568 q 715 661 681 651 q 750 674 750 669 q 718 692 750 692 q 553 603 667 692 q 328 358 442 514 q 499 451 438 451 q 571 421 543 451 q 597 347 597 392 q 463 100 597 214 q 196 -8 333 -8 q 82 121 82 -8 q 293 515 82 313 q 699 717 501 717 q 792 639 792 717 m 499 404 q 482 424 499 424 q 276 268 413 424 q 142 44 142 114 q 168 18 142 18 q 368 179 235 18 q 499 404 499 338 z "},"7":{"ha":546,"x_min":32,"x_max":821,"o":"m 821 738 q 761 676 815 731 q 653 553 729 644 q 218 0 467 328 l 32 0 q 338 313 185 167 q 528 486 410 383 q 722 657 697 633 l 718 663 q 522 579 561 579 q 438 607 483 579 q 374 635 390 635 q 292 572 350 635 l 258 574 l 433 775 l 467 775 l 378 669 q 515 708 446 708 q 593 697 557 708 q 685 672 668 672 q 792 738 726 672 l 821 738 z "},"8":{"ha":556,"x_min":47,"x_max":721,"o":"m 721 615 q 646 482 721 540 q 504 410 588 435 q 524 324 524 363 q 496 218 524 279 q 365 61 451 124 q 175 -6 275 -6 q 85 25 121 -6 q 47 111 47 58 q 151 282 47 208 q 340 376 204 321 q 331 426 331 400 q 415 624 331 535 q 607 713 500 713 q 721 615 721 713 m 667 617 q 594 689 667 689 q 493 656 542 689 q 440 567 440 618 q 494 429 440 538 q 667 617 667 496 m 400 201 q 346 354 400 236 q 211 281 261 318 q 113 111 113 204 q 138 47 113 74 q 199 21 161 21 q 335 74 272 21 q 400 201 400 129 z "},"9":{"ha":593,"x_min":8,"x_max":731,"o":"m 731 590 q 700 461 731 525 q 451 150 617 289 q 96 -6 267 -6 q 8 69 8 -6 q 28 119 8 97 q 75 144 49 144 q 124 99 124 144 q 89 50 124 58 q 53 36 53 42 q 92 18 53 18 q 408 271 190 18 q 493 385 460 328 q 297 279 367 279 q 206 383 206 279 q 338 619 206 517 q 599 714 461 714 q 693 682 657 714 q 731 590 731 649 m 660 661 q 635 686 660 686 q 463 568 576 686 q 293 319 293 392 q 315 303 293 303 q 525 451 389 303 q 660 661 660 601 z "}," ":{"ha":347,"x_min":0,"x_max":0,"o":""},"!":{"ha":433,"x_min":57,"x_max":697,"o":"m 697 725 q 629 608 697 682 l 233 182 l 214 193 l 496 692 q 621 797 556 797 q 674 776 650 797 q 697 725 697 754 m 236 94 q 203 19 236 51 q 128 -14 171 -14 q 57 58 57 -14 q 89 132 57 101 q 163 163 119 163 q 214 143 192 163 q 236 94 236 122 z "},"\"":{"ha":393,"x_min":281,"x_max":744,"o":"m 497 582 l 465 607 l 699 924 l 744 888 l 497 582 m 313 582 l 281 607 l 514 924 l 560 888 l 313 582 z "},"#":{"ha":943,"x_min":154,"x_max":979,"o":"m 958 485 l 767 485 l 685 285 l 878 285 l 860 236 l 667 236 l 585 33 l 531 33 l 613 236 l 400 236 l 318 33 l 265 33 l 347 236 l 154 236 l 174 285 l 368 285 l 449 485 l 254 485 l 275 535 l 468 535 l 547 732 l 600 732 l 521 535 l 735 535 l 811 732 l 865 732 l 786 535 l 979 535 l 958 485 m 500 485 l 419 285 l 633 285 l 713 485 l 500 485 z "},"$":{"ha":611,"x_min":14,"x_max":768,"o":"m 692 708 q 753 606 753 678 q 729 535 753 567 q 665 500 704 500 q 618 549 618 500 q 676 601 618 601 l 707 599 q 724 622 724 599 q 683 683 724 661 q 608 703 650 703 q 496 664 539 703 q 449 556 449 624 q 492 417 449 507 q 535 271 535 325 q 429 69 535 153 q 211 -10 332 -10 q 142 -1 178 -10 l 35 -140 l 14 -125 l 117 8 q 38 125 38 44 q 65 210 38 172 q 140 251 96 251 q 190 203 190 251 q 175 163 190 181 q 136 143 158 143 q 113 147 128 143 q 92 151 97 151 q 68 118 68 151 q 117 40 68 68 q 210 17 157 17 q 342 67 288 17 q 399 194 399 117 q 357 335 399 247 q 314 479 314 424 q 408 656 314 579 q 599 726 496 726 q 665 718 632 726 l 747 824 l 768 808 l 692 708 z "},"%":{"ha":1093,"x_min":228,"x_max":1213,"o":"m 789 885 q 707 715 789 822 q 571 574 639 628 q 419 507 488 507 q 343 596 343 507 q 481 829 343 713 q 732 940 614 940 q 789 885 789 940 m 343 0 l 228 0 l 1101 925 l 1213 925 l 343 0 m 1122 374 q 1040 206 1122 310 q 904 64 974 121 q 753 -4 819 -4 q 676 86 676 -4 q 814 318 676 201 q 1065 429 947 429 q 1122 374 1122 429 m 753 886 q 742 908 753 908 q 547 757 683 908 q 414 550 414 607 q 433 536 414 536 q 629 676 503 536 q 753 886 753 814 m 1086 375 q 1075 397 1086 397 q 881 246 1015 397 q 747 39 747 97 q 767 26 747 26 q 963 165 838 26 q 1086 375 1086 301 z "},"&":{"ha":836,"x_min":53,"x_max":882,"o":"m 882 372 q 864 315 882 340 q 811 288 843 288 q 768 326 768 288 q 781 358 768 343 q 811 374 794 374 q 829 371 818 374 q 846 367 840 367 q 858 383 858 367 q 831 406 858 406 q 689 322 779 406 q 515 153 629 267 q 514 83 514 149 q 542 33 514 33 q 715 168 610 33 l 736 158 q 486 -6 613 -6 q 388 61 404 -6 q 197 -6 290 -6 q 94 31 133 -6 q 53 132 53 68 q 115 272 53 213 q 400 379 188 342 l 415 382 q 510 579 444 499 q 696 676 589 676 q 750 657 728 676 q 774 604 774 636 q 747 531 774 572 q 560 408 719 489 q 521 188 521 261 q 740 392 694 357 q 831 428 789 428 q 882 372 882 428 m 738 619 q 700 654 738 654 q 567 436 622 654 q 738 619 738 517 m 407 343 q 239 206 310 288 q 156 57 156 110 q 214 17 156 17 q 382 82 289 17 q 379 139 379 121 q 407 343 379 222 z "},"’":{"ha":433,"x_min":401,"x_max":693,"o":"m 693 869 q 578 717 693 797 q 406 633 483 650 l 401 651 q 544 778 544 706 q 535 800 544 785 q 525 831 525 817 q 557 903 525 871 q 629 935 589 935 q 693 869 693 935 z "},"(":{"ha":415,"x_min":-99,"x_max":844,"o":"m 844 975 q 743 879 815 944 q 643 782 678 818 q 238 250 483 610 q -36 -200 53 -21 q -78 -290 -65 -256 l -99 -283 q 28 100 -58 -119 q 350 617 150 406 q 833 990 519 794 l 844 975 z "},")":{"ha":415,"x_min":-225,"x_max":718,"o":"m 718 983 q 592 601 678 817 q 269 85 467 293 q -214 -290 101 -94 l -225 -274 q -24 -82 -133 -201 q 104 71 11 -44 q 382 451 213 204 q 601 796 542 688 l 656 900 q 697 990 681 947 l 718 983 z "},"*":{"ha":656,"x_min":426,"x_max":832,"o":"m 832 728 q 801 692 832 708 q 754 676 775 676 q 710 693 740 676 q 624 733 657 724 q 679 658 643 694 q 708 604 708 629 q 694 558 708 585 q 664 528 681 528 q 618 553 642 528 q 594 600 594 578 q 604 658 594 619 q 614 717 614 696 l 614 731 q 557 653 588 706 q 490 606 531 606 q 426 636 426 606 q 444 689 426 661 q 510 721 464 717 q 604 738 571 726 q 514 767 578 753 q 461 792 474 775 q 440 860 440 819 q 482 890 440 890 q 564 833 539 890 q 608 749 586 778 q 613 788 613 769 q 610 829 613 801 q 607 869 607 856 q 635 919 607 894 q 686 944 661 944 q 721 875 721 944 q 657 789 721 850 q 624 747 639 771 q 697 771 646 750 q 757 790 742 790 q 803 768 775 790 q 832 728 832 744 z "},"+":{"ha":649,"x_min":161,"x_max":692,"o":"m 657 353 l 438 353 l 288 133 l 226 133 l 378 353 l 161 353 l 196 404 l 413 404 l 563 624 l 624 624 l 472 404 l 692 404 l 657 353 z "},",":{"ha":351,"x_min":-90,"x_max":217,"o":"m 217 90 q 103 -68 217 14 q -85 -158 4 -137 l -90 -140 l -82 -137 q 11 -82 -31 -121 q 61 -7 61 -40 q 50 17 61 -1 q 39 49 39 35 q 74 125 39 92 q 150 158 107 158 q 217 90 217 158 z "},"-":{"ha":443,"x_min":86,"x_max":511,"o":"m 418 175 l 86 175 l 178 294 l 511 294 l 418 175 z "},".":{"ha":351,"x_min":38,"x_max":218,"o":"m 218 89 q 185 15 218 47 q 110 -18 151 -18 q 38 53 38 -18 q 69 126 38 94 q 143 158 101 158 q 196 139 174 158 q 218 89 218 118 z "},"/":{"ha":697,"x_min":-149,"x_max":1013,"o":"m -46 -292 l -149 -292 l 908 986 l 1013 986 l -46 -292 z "},":":{"ha":389,"x_min":38,"x_max":426,"o":"m 426 381 q 393 306 426 339 q 318 272 360 272 q 267 293 288 272 q 246 344 246 314 q 278 417 246 385 q 350 450 310 450 q 403 431 381 450 q 426 381 426 411 m 218 89 q 185 15 218 47 q 110 -18 151 -18 q 38 53 38 -18 q 69 126 38 94 q 143 158 101 158 q 196 139 174 158 q 218 89 218 118 z "},";":{"ha":389,"x_min":-90,"x_max":428,"o":"m 428 381 q 394 306 428 338 q 319 272 363 272 q 268 293 289 272 q 249 344 249 314 q 281 418 249 386 q 354 450 313 450 q 406 431 383 450 q 428 381 428 410 m 217 90 q 96 -72 217 11 q -85 -158 -6 -142 l -90 -140 l -82 -137 q 11 -82 -31 -121 q 61 -7 61 -36 q 50 17 61 -1 q 39 49 39 35 q 74 125 39 92 q 150 158 107 158 q 217 90 217 158 z "},"<":{"ha":694,"x_min":-122,"x_max":479,"o":"m -122 439 l -122 490 l 479 758 l 479 701 l -61 465 l 479 228 l 479 172 l -122 439 z "},"=":{"ha":649,"x_min":138,"x_max":756,"o":"m 721 418 l 225 418 l 260 469 l 756 469 l 721 418 m 632 290 l 138 290 l 172 342 l 668 342 l 632 290 z "},">":{"ha":694,"x_min":-122,"x_max":479,"o":"m -122 172 l -122 228 l 418 465 l -122 701 l -122 758 l 479 490 l 479 439 l -122 172 z "},"?":{"ha":567,"x_min":64,"x_max":764,"o":"m 764 654 q 668 450 764 536 q 467 329 613 401 q 292 219 349 269 l 271 199 q 249 178 257 185 l 229 192 q 375 349 292 269 q 594 589 543 507 q 658 743 658 689 q 626 778 658 778 q 450 685 547 778 q 353 514 353 592 q 383 483 353 483 q 519 583 446 483 l 532 571 q 379 458 464 458 q 318 519 318 458 q 433 711 318 617 q 643 801 543 801 q 735 756 701 801 q 764 654 764 715 m 243 89 q 210 14 243 46 q 135 -19 178 -19 q 64 53 64 -19 q 96 126 64 96 q 169 158 126 158 q 221 139 199 158 q 243 89 243 118 z "},"@":{"ha":1250,"x_min":361,"x_max":1264,"o":"m 1264 544 q 1158 321 1264 414 q 924 229 1056 229 q 831 251 876 229 q 774 319 774 278 q 804 401 774 343 q 558 242 660 242 q 496 271 521 242 q 471 336 471 297 q 639 586 471 471 q 890 674 768 674 q 954 631 954 674 q 940 576 954 604 l 1004 660 l 1154 660 l 1032 501 q 908 342 950 394 q 881 294 881 304 q 944 261 881 261 q 1072 300 1003 261 q 1226 539 1226 386 q 1110 796 1226 693 q 842 893 997 893 q 529 765 658 893 q 399 453 399 636 q 525 149 399 275 q 829 24 651 24 q 1040 79 942 24 q 1211 258 1140 133 l 1249 258 q 1222 211 1235 232 q 829 -12 1086 -12 q 499 124 635 -12 q 361 454 361 261 q 501 790 361 650 q 836 929 640 929 q 1132 822 1006 929 q 1264 544 1264 711 m 935 628 q 921 642 935 642 q 724 499 867 642 q 560 283 560 335 q 578 267 560 267 q 790 413 644 267 q 935 628 935 560 z "},"A":{"ha":879,"x_min":-11,"x_max":1317,"o":"m 1317 933 q 1264 863 1300 910 q 1176 736 1232 822 q 947 378 1007 479 l 782 100 q 896 182 839 118 l 910 167 q 765 69 860 96 l 728 0 l 526 0 l 575 74 q 425 160 490 97 q 94 -15 253 -15 q 21 7 51 -15 q -11 75 -11 32 q 19 154 -11 119 q 96 192 53 192 q 138 176 121 192 q 156 135 156 160 q 136 90 156 110 q 90 72 115 72 q 61 81 78 72 q 36 88 44 88 q 21 63 21 88 q 46 21 21 36 q 96 8 68 8 q 408 175 199 8 q 286 469 286 294 q 329 614 286 551 q 454 685 376 685 q 603 611 533 685 q 685 461 663 546 q 806 588 736 518 q 1029 804 969 753 q 1293 938 1189 938 l 1317 933 m 1276 915 q 819 568 1147 910 l 754 500 q 690 432 715 460 q 699 353 699 393 q 686 229 699 288 q 760 328 707 253 q 844 440 815 403 q 1074 715 929 550 q 1222 867 1119 769 q 1263 904 1249 893 l 1276 915 m 665 440 q 594 581 646 519 q 461 650 535 650 q 351 583 393 650 q 317 454 317 526 q 426 192 317 314 q 465 231 439 206 l 504 268 q 606 375 539 303 q 665 440 672 446 m 674 358 q 671 411 674 393 q 443 175 524 244 q 589 93 500 118 q 650 178 631 149 q 674 358 674 213 z "},"B":{"ha":1219,"x_min":35,"x_max":1425,"o":"m 1425 911 l 1422 910 q 1419 908 1421 910 q 1313 861 1353 883 q 1417 681 1417 779 q 1313 503 1417 569 q 1110 449 1246 458 q 1232 279 1232 394 q 1157 114 1232 189 q 999 18 1093 50 q 846 -7 926 -7 q 740 61 740 -7 q 843 201 740 139 q 1015 269 917 246 l 1019 249 q 875 193 933 225 q 767 61 767 136 q 808 24 767 24 q 933 89 857 24 q 1110 388 1110 236 q 1088 439 1110 424 q 1043 436 1057 436 q 979 458 979 436 q 1017 479 979 479 q 1085 464 1046 479 l 1092 461 q 1174 519 1128 471 q 1294 779 1294 651 q 1275 840 1294 817 q 1197 783 1242 828 q 957 469 1090 675 q 558 53 735 129 q 244 -7 419 -7 q 35 111 35 -7 q 67 188 35 154 q 143 222 100 222 q 204 167 204 222 q 186 124 204 142 q 143 104 168 104 q 108 114 129 104 q 81 122 89 122 q 65 99 65 122 q 124 35 65 57 q 217 18 167 18 q 419 86 313 18 q 797 492 511 146 q 1258 860 985 718 q 978 928 1174 928 q 606 835 781 928 q 417 690 496 778 q 318 481 318 583 q 349 411 318 436 q 422 386 376 386 q 721 557 565 386 q 875 822 807 651 l 894 821 q 819 640 872 728 q 657 451 754 529 q 429 360 542 360 q 333 390 371 360 q 293 482 293 424 q 435 743 293 615 q 982 950 661 950 q 1288 875 1168 950 q 1419 928 1371 913 l 1425 911 z "},"C":{"ha":1025,"x_min":322,"x_max":1396,"o":"m 1396 875 q 1110 594 1396 735 q 774 490 963 522 q 701 483 732 483 q 479 114 479 229 q 519 36 479 64 q 607 11 554 11 q 929 135 792 11 q 1021 296 1021 218 q 919 374 1021 374 q 710 279 815 374 q 567 92 621 200 l 550 96 q 690 303 603 221 q 913 400 793 400 q 1004 374 967 400 q 1044 292 1044 344 q 950 122 1044 206 q 606 -11 801 -11 q 440 46 500 -11 q 378 208 378 104 q 500 494 378 360 q 322 679 322 535 q 401 858 322 781 q 575 958 468 925 q 769 986 664 986 q 967 956 875 986 l 957 936 q 793 958 882 958 q 607 931 699 958 q 436 838 506 899 q 350 669 350 761 q 406 565 350 610 q 517 515 451 529 q 872 801 646 669 q 1299 946 1121 946 q 1396 875 1396 946 m 1375 874 q 1301 925 1375 925 q 983 767 1181 925 q 719 506 826 640 q 782 513 747 506 q 1097 611 967 547 q 1267 718 1189 656 q 1375 874 1375 804 z "},"D":{"ha":1165,"x_min":140,"x_max":1446,"o":"m 1446 840 q 1268 717 1338 799 q 1288 589 1288 642 q 1133 186 1288 372 q 758 -8 971 -8 q 549 35 649 -8 l 479 15 q 288 -8 396 -8 q 140 58 140 -8 q 294 122 140 122 q 533 67 388 122 q 646 154 586 92 q 782 313 701 211 q 913 475 881 438 q 1142 683 1029 610 q 1232 742 1217 733 q 876 925 1149 925 q 557 840 694 925 q 413 710 472 789 q 342 532 342 618 q 403 422 342 463 q 528 386 456 386 q 804 494 682 386 q 967 747 917 593 l 982 743 q 949 638 976 696 q 779 439 890 514 q 531 363 665 363 q 378 410 440 363 q 310 550 310 463 q 410 786 310 682 q 633 922 497 878 q 851 956 740 956 q 1251 754 1142 956 q 1439 856 1301 804 l 1446 840 m 1265 592 q 1250 701 1265 650 q 1111 500 1189 633 q 724 106 931 199 q 582 46 622 61 q 757 14 654 14 q 1118 203 963 14 q 1265 592 1265 382 m 507 53 q 293 100 385 100 q 171 56 171 100 q 308 14 171 14 q 507 53 401 14 z "},"E":{"ha":976,"x_min":292,"x_max":1303,"o":"m 1303 901 q 1092 683 1303 789 q 774 594 942 607 q 765 565 765 581 q 771 550 765 556 q 814 556 789 556 q 879 532 879 556 q 829 511 879 511 q 760 529 793 511 q 546 350 664 489 q 418 106 418 201 q 550 15 418 15 q 835 101 708 15 q 963 283 963 188 q 931 340 963 319 q 865 358 903 358 q 628 267 744 358 q 485 122 536 193 l 471 132 q 631 306 528 235 q 850 383 740 383 q 942 361 906 383 q 988 283 988 335 q 883 107 988 192 q 540 -10 738 -10 q 365 42 432 -10 q 292 203 292 97 q 478 471 292 374 q 747 547 589 529 q 710 592 721 564 l 694 592 q 513 631 590 592 q 415 775 415 681 q 525 942 415 879 q 731 993 618 993 q 892 964 819 993 l 882 947 q 763 965 824 965 q 639 949 700 965 q 510 885 563 929 q 444 761 444 831 q 539 644 444 685 q 700 613 610 614 q 690 657 690 639 q 807 836 690 754 q 1010 929 894 897 q 1211 956 1106 956 q 1303 901 1303 956 m 1279 900 q 1235 933 1279 933 q 851 700 1076 933 q 788 618 814 663 q 1072 697 940 633 q 1279 900 1279 801 z "},"F":{"ha":908,"x_min":94,"x_max":1531,"o":"m 1531 911 q 1233 810 1388 810 q 906 858 1143 810 q 708 885 771 885 q 494 814 589 885 q 393 621 393 738 q 438 538 393 567 q 532 511 475 511 q 767 588 656 511 q 935 771 871 657 l 954 771 q 900 682 938 732 q 546 486 751 486 q 425 517 474 486 q 367 621 367 553 q 458 814 367 728 q 650 924 536 886 q 835 951 742 951 q 1169 918 964 951 q 1393 892 1325 892 q 1524 925 1465 892 l 1531 911 m 1167 781 q 951 475 1085 707 l 1025 492 q 1146 578 1090 578 q 1154 571 1154 578 q 1035 469 1154 526 q 988 344 997 415 l 939 325 q 1000 463 946 390 l 939 449 q 871 332 943 453 q 622 82 778 172 q 282 -8 467 -8 q 94 107 94 -8 q 126 183 94 150 q 201 218 158 218 q 260 163 260 218 q 240 118 260 136 q 196 100 222 100 q 168 108 185 100 q 140 117 150 117 q 124 93 124 117 q 268 17 124 17 q 547 167 411 17 q 654 299 585 208 q 753 422 719 388 q 460 300 594 403 l 453 325 q 775 453 554 404 q 1154 794 921 642 l 1167 781 z "},"G":{"ha":956,"x_min":239,"x_max":1306,"o":"m 1306 881 q 1114 672 1306 774 q 779 576 990 607 q 733 574 764 574 q 569 324 569 385 q 639 279 569 279 q 971 421 768 279 q 1075 493 1089 501 l 1086 478 q 1008 354 1038 433 q 907 157 957 214 q 456 -12 757 -12 q 239 106 239 -12 q 271 186 239 151 q 349 221 303 221 q 407 164 407 221 q 389 121 407 139 q 344 101 369 101 q 313 111 332 101 q 288 119 293 119 q 268 96 268 119 q 322 35 268 57 q 408 17 364 17 q 685 154 524 17 q 851 289 782 236 l 889 317 q 925 344 913 336 q 999 403 992 396 l 993 408 q 636 256 768 256 q 524 303 569 256 q 478 415 478 349 q 539 588 478 501 q 378 744 378 622 q 496 924 378 857 q 715 979 594 979 q 886 947 817 979 l 876 929 q 740 951 811 951 q 607 933 669 951 q 474 865 528 911 q 407 738 407 810 q 553 607 407 638 q 850 839 654 735 q 1210 949 1056 949 q 1306 881 1306 949 m 1281 878 q 1226 924 1281 924 q 756 597 1044 924 q 1110 696 964 618 q 1281 878 1281 788 z "},"H":{"ha":989,"x_min":63,"x_max":1543,"o":"m 1543 932 q 1397 735 1543 856 q 1179 590 1283 640 l 1142 572 q 1103 553 1115 560 l 1011 442 q 724 32 724 90 q 736 19 724 19 q 1004 199 794 19 l 1019 182 q 871 63 950 119 q 714 -7 775 -7 q 657 24 678 -7 q 639 88 639 50 q 853 481 639 235 l 832 476 q 772 458 833 478 l 683 433 q 390 121 556 246 q 113 -8 217 -8 q 63 38 63 -8 q 301 301 63 151 q 458 388 368 346 q 892 781 603 581 q 976 840 972 836 l 972 846 q 792 792 869 792 q 676 836 747 792 q 561 881 607 881 q 465 835 508 881 q 424 736 424 790 q 458 678 424 699 q 528 660 488 660 q 728 761 643 660 l 742 751 q 538 633 672 633 q 444 658 482 633 q 400 739 400 686 q 494 890 400 828 q 672 946 579 946 q 806 900 732 946 q 911 853 879 853 q 1126 961 969 853 l 1144 949 q 1053 882 1101 924 q 818 619 932 782 l 710 467 q 797 492 740 479 q 885 515 860 507 q 1057 688 965 607 q 1504 965 1365 965 q 1543 932 1543 965 m 1513 928 q 1494 946 1513 946 q 1140 596 1424 946 q 1304 693 1217 629 q 1513 928 1513 842 m 428 346 q 249 236 319 289 q 90 36 90 115 q 117 13 90 13 q 428 346 192 13 z "},"I":{"ha":799,"x_min":-44,"x_max":1353,"o":"m 1353 953 q 1325 938 1353 943 q 1168 872 1206 904 q 921 535 1038 761 q 1121 656 994 554 l 1133 642 q 904 506 1040 542 l 897 493 q 764 275 799 319 q 690 192 742 246 q 526 65 613 110 q 183 -10 381 -10 q -44 110 -44 -10 q -11 186 -44 153 q 65 221 22 221 q 126 165 126 221 q 107 121 126 139 q 63 104 89 104 q 29 114 47 104 q 3 122 11 122 q -14 97 -14 122 q 50 31 -14 53 q 151 14 97 14 q 429 128 301 14 q 731 506 565 251 q 607 653 607 544 q 721 840 607 769 q 1210 933 814 899 q 1275 950 1229 935 q 1339 963 1315 963 q 1353 953 1353 963 m 1193 914 q 872 867 949 894 q 722 782 785 835 q 640 638 640 714 q 671 561 640 593 q 744 525 700 532 q 1103 863 888 743 l 1193 914 z "},"J":{"ha":635,"x_min":-192,"x_max":1201,"o":"m 1201 950 q 1099 918 1201 926 q 974 839 1057 913 q 738 532 858 735 q 960 671 847 563 l 974 656 q 719 504 869 539 q 675 431 701 478 l 631 357 q 511 179 551 232 q 644 251 561 194 l 654 231 q 482 140 526 158 q 217 -110 349 -29 q -115 -226 25 -226 q -192 -167 -192 -226 q 267 103 -192 -15 q 478 392 288 135 l 518 447 q 560 503 543 483 q 429 656 429 544 q 567 858 429 786 q 1060 935 667 911 q 1083 936 1076 935 q 1106 944 1086 936 q 1183 961 1156 961 q 1201 950 1201 961 m 1042 913 q 694 867 772 893 q 461 632 461 783 q 576 522 461 549 q 957 865 731 742 q 1042 913 1039 910 m 246 75 q 8 -12 119 40 q -165 -171 -165 -96 q -112 -207 -165 -207 q 246 75 29 -207 z "},"K":{"ha":1061,"x_min":67,"x_max":1550,"o":"m 1550 910 q 1533 864 1550 885 q 1490 842 1515 842 q 1446 882 1446 842 l 1449 901 q 1442 908 1449 908 q 1363 794 1425 908 q 1199 572 1279 642 q 944 469 1096 481 q 1010 346 1010 419 q 889 121 1010 258 q 825 40 838 63 l 822 33 q 840 18 822 18 q 860 24 846 18 q 996 99 953 67 q 1072 154 1038 126 l 1125 197 l 1139 179 q 813 -7 924 -7 q 753 24 775 -7 q 732 90 732 51 q 832 288 732 169 q 932 444 932 406 q 922 464 932 456 q 907 463 917 463 q 853 481 853 463 q 878 494 853 494 q 919 485 901 494 l 925 485 q 1088 622 982 485 q 1303 847 1201 768 q 1501 950 1435 950 q 1550 910 1550 950 m 1256 933 q 849 488 1053 800 q 608 164 690 246 q 207 -6 439 -6 q 113 21 151 -6 q 67 103 67 50 q 100 182 67 147 q 176 217 133 217 q 218 201 201 217 q 236 160 236 185 q 218 117 236 135 q 174 99 199 99 q 140 107 160 99 q 114 115 121 115 q 99 90 99 115 q 132 38 99 58 q 193 19 160 19 q 539 313 324 19 q 790 614 692 519 q 1015 782 878 699 q 1129 856 1083 824 l 1126 861 l 1060 828 q 896 790 985 790 q 768 847 840 790 q 636 904 697 904 q 494 856 558 904 q 425 726 425 803 q 467 649 425 676 q 554 625 501 625 q 792 738 711 625 l 807 728 q 563 596 715 596 q 451 628 497 596 q 400 726 400 664 q 506 892 400 826 q 703 949 597 949 q 904 883 797 949 q 1010 844 967 844 q 1243 949 1119 844 l 1256 933 z "},"L":{"ha":953,"x_min":-25,"x_max":1440,"o":"m 1440 886 q 1178 579 1440 733 q 940 481 1056 508 q 713 196 803 260 q 549 114 642 147 q 757 71 696 71 q 1014 201 867 71 l 1028 186 q 946 118 988 147 q 615 -10 771 -10 q 392 33 511 -10 q 136 -8 285 -8 q -25 64 -25 -8 q 139 174 -25 142 q 232 182 185 182 q 513 122 336 182 q 656 325 574 172 q 738 461 694 399 q 503 510 601 463 q 374 693 374 572 q 454 867 374 789 q 626 964 524 932 q 794 989 708 989 q 993 957 901 989 l 989 940 q 811 964 908 964 q 639 940 718 964 q 478 853 542 911 q 401 690 401 782 q 529 524 401 578 q 753 483 622 483 q 1013 781 874 668 q 1367 947 1218 947 q 1440 886 1440 947 m 1417 883 q 1372 926 1417 926 q 954 507 1243 926 q 1175 606 1064 536 q 1417 883 1417 758 m 356 44 q 113 101 214 101 q 3 57 3 101 q 142 14 3 14 q 356 44 256 14 z "},"M":{"ha":1075,"x_min":-3,"x_max":1471,"o":"m 1471 944 q 1296 719 1397 861 q 1032 328 1153 517 q 871 32 871 72 q 886 18 871 18 q 1065 135 943 18 l 1140 208 l 1158 193 q 871 -6 960 -6 q 781 115 781 -6 q 997 517 781 271 q 1200 729 1074 603 l 1246 774 q 1292 818 1274 801 l 1400 918 l 1399 924 q 1235 836 1343 917 q 708 221 1061 707 q 579 54 615 93 q 479 -4 526 -4 q 413 90 413 -4 q 542 383 413 213 q 1001 847 758 664 q 1092 917 1085 910 l 1092 921 q 719 667 958 915 q 410 304 643 586 q 268 136 313 186 q 158 26 196 54 q 67 -10 110 -10 q 17 13 36 -10 q -3 64 -3 33 q 24 140 -3 106 q 92 179 51 179 q 143 133 143 179 q 126 88 143 108 q 83 65 108 65 q 60 72 74 65 q 43 78 47 78 q 26 53 26 78 q 67 15 26 15 q 147 50 101 15 q 388 318 197 89 q 864 831 713 711 q 1129 944 1010 944 q 1165 942 1153 944 q 1081 853 1122 899 q 885 608 992 753 q 499 33 499 93 q 507 24 499 24 q 642 168 535 24 l 750 315 q 876 485 824 417 q 1444 946 1232 946 q 1471 944 1463 946 z "},"N":{"ha":924,"x_min":-3,"x_max":1472,"o":"m 1472 867 q 1453 801 1472 829 q 1396 768 1432 768 q 1344 815 1344 768 q 1393 863 1344 863 l 1421 860 q 1438 881 1438 860 q 1396 915 1438 915 q 1308 869 1361 915 q 1015 481 1222 793 q 918 336 951 383 q 710 74 810 182 q 611 -6 636 -6 q 679 215 657 58 l 701 376 q 856 761 731 585 q 899 821 863 772 q 940 882 925 858 q 817 767 889 847 q 621 514 746 689 q 321 139 454 279 q 76 -6 183 -6 q -3 68 -3 -6 q 25 146 -3 110 q 96 183 56 183 q 151 135 151 183 q 132 90 151 110 q 86 71 111 71 q 63 79 74 71 q 46 88 51 88 q 28 61 28 88 q 79 17 28 17 q 306 157 172 17 q 608 538 419 276 q 813 794 736 715 q 990 938 907 894 q 964 892 969 904 q 924 628 953 868 q 793 257 899 419 l 669 68 l 675 64 q 900 349 765 149 l 1000 496 q 1219 804 1165 739 q 1401 938 1331 938 q 1472 867 1472 938 z "},"O":{"ha":843,"x_min":165,"x_max":1239,"o":"m 1239 826 q 1100 654 1239 703 l 1094 667 q 1211 832 1211 729 q 1172 901 1211 875 q 1092 925 1138 925 q 692 735 913 925 q 386 393 525 592 q 258 107 258 211 q 296 38 258 63 q 374 15 328 15 q 776 226 557 15 q 1046 669 1046 489 q 979 749 1046 749 q 753 607 888 749 q 639 422 639 483 q 669 394 639 394 q 822 486 738 394 q 926 640 893 563 l 940 635 q 893 543 931 597 q 664 375 781 375 q 611 400 632 375 q 592 457 592 424 q 724 674 592 568 q 964 774 849 774 q 1067 672 1067 774 q 865 286 1067 511 q 650 93 765 175 q 374 -6 511 -6 q 221 64 279 -6 q 165 225 165 129 q 406 660 165 446 q 1064 951 732 951 q 1181 925 1133 951 q 1239 826 1239 892 z "},"P":{"ha":1069,"x_min":53,"x_max":1368,"o":"m 1368 685 q 1269 476 1368 565 q 1051 390 1174 390 q 974 449 974 390 q 1061 554 974 518 l 1068 533 q 999 449 999 503 q 1032 418 999 418 q 1124 474 1068 418 q 1257 776 1257 613 q 1231 860 1257 829 q 1097 718 1181 829 q 908 415 1069 681 q 689 139 790 224 q 444 18 590 56 q 246 -8 342 -8 q 53 104 53 -8 q 86 183 53 149 q 163 218 119 218 q 219 161 219 218 q 200 118 219 135 q 156 100 182 100 q 126 108 144 100 q 101 115 110 115 q 83 90 83 115 q 138 32 83 53 q 222 17 178 17 q 690 364 443 17 l 771 478 q 879 610 826 551 q 986 717 929 667 q 1208 878 996 725 q 965 933 1114 933 q 653 875 797 933 q 433 736 528 824 q 314 514 314 626 q 349 440 314 467 q 428 415 379 415 q 796 669 625 415 q 885 839 853 753 l 904 833 q 789 604 883 743 q 438 385 635 385 q 333 419 375 385 q 289 517 289 456 q 456 786 289 651 q 961 956 667 956 q 1231 890 1143 956 q 1332 953 1224 885 l 1342 935 l 1250 876 q 1368 685 1368 785 z "},"Q":{"ha":899,"x_min":165,"x_max":1239,"o":"m 1239 824 q 1100 653 1239 696 l 1094 667 q 1211 824 1211 717 q 1172 900 1211 872 q 1088 924 1139 924 q 635 682 889 924 q 403 415 511 564 q 260 108 260 219 q 379 14 260 14 q 493 36 429 14 q 475 78 485 50 q 457 119 464 107 q 406 156 436 156 q 310 113 372 156 l 300 129 q 461 188 374 188 q 629 106 572 188 q 788 235 708 157 q 1044 667 1044 488 q 983 747 1044 747 q 756 607 889 747 q 640 419 640 488 q 667 393 640 393 q 821 485 733 393 q 926 639 896 563 l 942 633 q 835 468 922 556 q 665 372 742 372 q 613 397 633 372 q 592 454 592 421 q 724 672 592 565 q 965 772 850 772 q 1068 671 1068 772 q 914 344 1068 540 q 644 88 776 169 q 747 15 696 15 q 928 132 815 15 l 944 118 q 635 -36 797 -36 q 504 17 550 -36 q 376 -8 436 -8 q 221 58 281 -8 q 165 221 165 124 q 469 711 165 474 q 1065 950 774 950 q 1182 922 1136 950 q 1239 824 1239 889 z "},"R":{"ha":1147,"x_min":39,"x_max":1390,"o":"m 1390 919 q 1269 861 1350 906 q 1367 685 1367 781 q 1278 506 1367 574 q 1083 433 1201 444 l 1039 429 q 1082 297 1082 374 q 1056 203 1082 246 q 953 74 1025 151 q 918 29 918 39 q 929 19 918 19 q 1210 197 996 19 l 1224 178 q 904 -8 1025 -8 q 824 83 824 -8 q 925 263 824 164 q 1026 401 1026 361 q 1022 429 1026 415 q 936 457 936 429 q 964 472 936 472 q 1028 447 999 472 q 1132 522 1076 456 q 1244 785 1244 656 q 1233 838 1244 815 q 1160 778 1199 818 q 989 554 1069 682 q 594 79 740 163 q 228 -7 443 -7 q 39 106 39 -7 q 72 186 39 151 q 150 221 106 221 q 210 164 210 221 q 193 121 210 139 q 150 101 175 101 q 117 111 138 101 q 88 119 97 119 q 72 97 72 119 q 125 33 72 56 q 214 18 164 18 q 693 385 414 18 q 972 696 857 600 q 1219 861 1113 813 q 951 932 1157 932 q 544 832 715 932 q 308 514 308 692 q 417 415 308 415 q 697 550 560 415 q 872 851 811 661 l 892 847 q 731 535 850 664 q 418 390 594 390 q 322 421 361 390 q 281 510 281 456 q 417 771 281 653 q 686 915 529 867 q 944 954 808 954 q 1247 876 1143 954 q 1382 938 1339 922 l 1390 919 z "},"S":{"ha":901,"x_min":18,"x_max":1438,"o":"m 1438 906 q 1242 640 1438 801 q 969 482 1094 519 q 732 160 858 281 q 275 -7 557 -7 q 115 17 183 -7 q 18 125 18 50 q 53 204 18 171 q 133 236 88 236 q 196 178 196 236 q 135 117 196 117 q 92 132 114 117 q 65 147 71 147 q 46 117 46 147 q 121 39 46 67 q 238 18 178 18 q 524 149 385 18 q 729 401 600 219 l 775 464 l 750 463 q 588 490 683 463 q 410 689 410 546 q 488 868 410 789 q 661 968 557 936 q 832 993 744 993 q 1022 961 942 993 l 1013 944 q 842 965 929 965 q 676 943 753 965 q 511 854 576 914 q 435 689 435 782 q 553 529 435 585 q 761 485 646 485 q 790 486 781 485 q 1272 921 993 785 q 1381 951 1336 951 q 1438 906 1438 951 m 1414 904 q 1382 931 1414 931 q 988 513 1242 931 q 1228 661 1090 547 q 1414 904 1414 817 z "},"T":{"ha":876,"x_min":86,"x_max":1525,"o":"m 1525 914 q 1478 886 1507 900 q 1215 814 1342 814 q 951 851 1126 814 q 686 889 776 889 q 482 813 575 889 q 382 622 382 731 q 429 539 382 569 q 525 514 469 514 q 760 592 639 514 q 926 774 883 671 l 944 774 q 872 658 931 725 q 535 488 721 488 q 417 519 468 488 q 357 619 357 556 q 447 814 357 725 q 638 925 525 889 q 819 954 725 954 q 1185 918 960 954 q 1379 894 1340 894 q 1517 928 1461 894 l 1525 914 m 1160 783 q 953 493 1074 724 q 767 206 849 293 q 275 -7 568 -7 q 86 106 86 -7 q 118 183 86 149 q 193 219 150 219 q 235 203 217 219 q 251 161 251 185 q 233 118 251 136 q 189 101 214 101 q 158 110 178 101 q 131 117 140 117 q 115 92 115 117 q 169 32 115 53 q 257 17 210 17 q 482 110 381 17 q 633 282 549 171 q 775 464 758 444 q 1021 703 897 610 q 1147 797 1126 785 l 1160 783 z "},"U":{"ha":1093,"x_min":331,"x_max":1533,"o":"m 907 118 q 854 29 854 53 q 872 17 854 17 q 1150 197 947 17 l 1165 182 q 1001 53 1110 129 q 860 -7 917 -7 q 794 25 819 -7 q 771 96 771 56 q 882 303 771 167 l 892 317 l 886 321 q 424 -8 557 -8 q 331 93 331 -8 q 525 410 331 185 l 744 665 q 846 854 846 782 q 747 928 846 928 q 521 863 628 928 q 357 636 357 761 q 378 579 357 601 q 435 556 400 556 q 621 656 526 556 q 726 864 696 736 l 744 860 q 644 640 732 742 q 435 532 549 532 q 363 560 392 532 q 332 632 332 589 q 479 861 332 758 q 750 949 604 949 q 889 913 835 949 q 953 790 953 871 q 807 526 953 696 l 510 175 q 411 32 411 58 q 439 14 411 14 q 896 364 563 14 q 1110 613 1021 496 l 1357 936 l 1533 936 l 907 118 z "},"V":{"ha":1083,"x_min":353,"x_max":1675,"o":"m 1675 890 q 1654 835 1675 858 q 1601 810 1633 810 q 1551 858 1551 810 q 1596 906 1551 899 q 1621 919 1621 908 q 1596 933 1621 933 q 1156 543 1476 933 q 822 188 957 301 q 417 -6 593 -6 l 382 -4 q 536 233 438 43 q 861 685 706 564 q 986 782 944 749 l 1069 849 l 1065 854 q 824 775 907 775 q 692 840 765 775 q 567 904 618 904 q 440 846 503 904 q 378 722 378 788 q 415 656 378 679 q 493 633 449 633 q 719 757 625 633 l 733 749 q 503 608 657 608 q 403 636 444 608 q 353 722 353 667 q 485 904 353 828 q 657 951 567 951 q 828 890 756 951 q 938 829 899 829 q 1158 947 1025 829 l 1174 932 q 1108 869 1164 921 q 940 639 1024 788 q 586 133 726 257 q 432 19 493 51 l 433 14 q 569 53 501 22 q 853 247 706 111 q 1135 556 961 347 q 1343 796 1282 735 q 1601 958 1504 958 q 1675 890 1675 958 z "},"W":{"ha":1249,"x_min":336,"x_max":1825,"o":"m 1825 900 q 1806 843 1825 867 q 1753 818 1785 818 q 1701 864 1701 818 q 1736 908 1701 897 q 1771 926 1771 919 q 1749 942 1771 942 q 1356 567 1618 942 q 1138 267 1189 329 q 850 38 989 89 q 689 3 756 3 q 660 6 679 3 q 888 315 747 74 q 1101 629 1003 515 q 1385 888 1225 768 q 1429 921 1424 915 l 1428 925 q 1275 858 1372 925 q 938 496 1121 754 q 619 111 728 197 q 368 1 483 1 q 336 4 358 1 q 481 210 393 42 q 660 511 608 446 q 1017 829 783 668 l 1013 835 q 811 776 849 776 q 679 840 753 776 q 554 904 606 904 q 440 849 494 904 q 385 733 385 793 q 417 668 385 693 q 486 646 444 646 q 694 744 599 646 l 707 736 q 499 617 633 617 q 403 646 442 617 q 361 732 361 676 q 458 894 361 829 q 646 951 543 951 q 803 904 751 951 q 926 832 881 832 q 1132 943 978 832 l 1144 929 q 1079 865 1138 919 q 1018 797 1057 844 q 860 554 960 726 q 389 26 633 165 l 390 21 q 697 217 535 39 q 924 514 769 294 q 1444 946 1229 946 q 1481 938 1465 946 l 1471 929 q 1389 846 1419 885 q 1249 621 1338 782 l 1153 450 q 717 31 969 156 l 717 25 q 1079 235 903 46 q 1336 579 1147 308 q 1590 886 1486 793 q 1754 965 1678 965 q 1825 900 1825 965 z "},"X":{"ha":971,"x_min":99,"x_max":1479,"o":"m 1479 904 q 1142 572 1479 747 q 907 472 1025 513 q 842 386 889 446 q 646 46 646 132 q 679 15 646 15 q 974 192 775 15 l 988 176 q 913 113 965 151 q 675 -8 750 -8 q 601 103 601 -8 q 626 238 601 165 q 167 -7 369 -7 q 99 46 99 -7 q 213 206 99 118 q 661 425 357 317 l 685 433 q 888 822 888 708 q 758 929 888 929 q 611 906 685 929 q 454 819 521 876 q 372 668 372 750 q 404 603 372 628 q 476 579 435 579 q 667 668 581 579 q 768 857 744 749 l 785 854 l 785 853 q 764 760 785 808 q 654 617 726 672 q 485 557 575 557 q 390 585 431 557 q 346 669 346 617 q 429 832 346 756 q 592 926 497 894 q 744 951 665 951 q 958 763 958 951 q 949 656 958 740 q 1026 732 981 693 q 1150 833 1107 801 q 1418 951 1306 951 q 1479 904 1479 951 m 1456 899 q 1415 931 1456 931 q 931 506 1254 931 q 1135 594 1029 539 q 1456 899 1456 763 m 658 401 q 456 324 557 371 q 126 49 126 168 q 174 14 126 14 q 393 129 258 14 q 658 401 518 233 z "},"Y":{"ha":1072,"x_min":215,"x_max":1644,"o":"m 1644 931 q 1281 542 1483 782 q 1108 329 1204 451 q 921 81 972 154 q 1157 240 1003 126 l 1169 222 l 1163 215 q 878 32 1067 132 q 614 -219 753 -132 q 299 -333 435 -333 q 215 -275 215 -333 q 285 -164 215 -221 q 683 6 397 -69 l 1008 421 l 1001 426 l 897 326 q 553 121 681 121 q 486 151 513 121 q 461 221 461 179 q 496 336 461 279 q 682 546 533 397 q 932 869 932 796 q 822 929 932 929 q 501 824 643 929 q 385 647 385 738 q 411 597 385 615 q 468 579 435 579 q 681 672 569 579 q 824 860 783 760 l 839 856 q 699 651 807 742 q 469 558 586 558 q 394 581 425 558 q 361 649 361 607 q 483 839 361 749 q 817 950 635 950 q 994 808 994 950 q 917 597 994 701 q 760 429 883 551 q 647 310 693 363 q 543 164 543 193 q 569 146 543 146 q 1288 754 718 146 q 1464 932 1401 876 l 1644 931 m 660 -22 q 382 -129 474 -79 q 243 -276 243 -206 q 301 -311 243 -311 q 475 -229 385 -311 q 660 -22 575 -139 z "},"Z":{"ha":1003,"x_min":-17,"x_max":1417,"o":"m 1417 911 q 1351 836 1417 874 q 1125 774 1239 774 q 1090 775 1101 774 q 882 478 990 672 q 917 475 904 475 q 1033 503 978 475 l 1042 492 q 849 425 978 411 q 500 138 747 272 q 697 128 614 128 q 1010 242 974 128 l 1031 238 q 896 54 1000 121 q 674 -8 799 -8 q 360 51 535 -8 q 115 -8 228 -8 q -17 53 -17 -8 q 144 149 -17 122 q 235 156 196 156 q 451 143 360 156 q 681 447 539 224 q 650 449 671 449 q 513 411 571 449 l 503 428 q 718 500 588 500 q 1032 763 813 622 l 949 760 q 738 810 858 760 q 525 874 585 874 q 419 833 464 874 q 375 729 375 790 q 419 658 375 683 q 504 638 456 638 q 731 753 625 638 l 742 744 q 508 614 671 614 q 403 642 447 614 q 351 731 351 674 q 460 893 351 829 q 658 947 551 947 q 914 868 771 947 q 1085 803 1013 814 q 1372 942 1254 942 q 1417 911 1417 942 m 1393 908 q 1371 922 1393 922 q 1117 797 1256 922 l 1144 797 q 1325 844 1228 797 q 1393 908 1393 881 m 328 63 q 143 97 213 97 q 13 50 13 97 q 107 15 13 15 q 328 63 226 15 z "},"[":{"ha":549,"x_min":-179,"x_max":1051,"o":"m 1032 957 l 890 957 l -37 -253 l 107 -253 l 90 -282 l -179 -282 l 790 986 l 1051 986 l 1032 957 z "},"\\":{"ha":1013,"x_min":315,"x_max":1013,"o":"m 910 -292 l 315 986 l 418 986 l 1013 -292 l 910 -292 z "},"]":{"ha":549,"x_min":-265,"x_max":965,"o":"m -4 -282 l -265 -282 l -246 -254 l -104 -254 l 824 957 l 678 957 l 696 986 l 965 986 l -4 -282 z "},"^":{"ha":694,"x_min":-118,"x_max":474,"o":"m 408 531 l 176 883 l -54 531 l -118 531 l 142 926 l 215 926 l 474 531 l 408 531 z "},"_":{"ha":694,"x_min":-169,"x_max":525,"o":"m -169 -160 l -169 -106 l 525 -106 l 525 -160 l -169 -160 z "},"‘":{"ha":433,"x_min":553,"x_max":860,"o":"m 860 926 q 768 875 819 915 q 710 793 710 828 q 721 768 710 785 q 731 738 731 751 q 696 661 731 694 q 619 628 663 628 q 553 696 553 628 q 674 858 553 772 q 854 944 775 928 l 860 926 z "},"a":{"ha":631,"x_min":24,"x_max":742,"o":"m 501 119 q 444 35 444 54 q 460 21 444 21 q 485 31 468 21 q 682 186 593 100 l 696 169 q 549 47 626 106 q 425 -10 475 -10 q 368 11 390 -10 q 343 67 343 33 q 374 160 343 106 q 115 -10 224 -10 q 49 21 76 -10 q 24 90 24 50 q 200 353 24 232 q 465 446 333 446 q 533 400 533 446 q 517 343 533 376 l 585 431 l 742 431 l 501 119 m 513 397 q 497 413 513 413 q 289 263 439 413 q 117 35 117 90 q 136 17 117 17 q 286 104 179 17 q 467 297 389 189 q 511 390 501 344 q 513 397 513 392 z "},"b":{"ha":492,"x_min":28,"x_max":883,"o":"m 883 893 q 561 546 883 781 l 401 429 l 383 406 q 322 326 361 374 l 261 247 q 178 138 189 154 q 111 26 111 47 q 129 14 111 14 q 431 239 229 14 q 426 274 426 256 q 460 381 426 322 q 540 444 497 444 q 561 421 561 444 q 460 239 561 353 q 517 193 461 193 q 553 200 532 193 l 560 181 q 508 175 536 175 q 440 217 453 175 q 113 -10 214 -10 q 28 92 28 -10 q 128 307 28 179 q 442 657 265 488 q 847 925 719 925 q 883 893 883 925 m 853 886 q 835 904 853 904 q 551 626 768 904 q 450 492 501 564 q 708 694 536 546 q 853 886 853 818 z "},"c":{"ha":422,"x_min":28,"x_max":558,"o":"m 558 385 q 539 325 558 350 q 483 299 517 299 q 442 338 442 299 q 485 382 442 375 q 528 404 528 389 q 506 422 528 422 q 285 265 436 422 q 135 39 135 108 q 168 14 135 14 q 476 192 283 14 l 489 175 q 144 -8 271 -8 q 64 25 99 -8 q 28 104 28 58 q 199 358 28 246 q 472 447 332 447 q 558 385 558 447 z "},"d":{"ha":631,"x_min":26,"x_max":1065,"o":"m 490 106 q 447 36 447 49 q 461 24 447 24 q 683 188 496 24 l 697 172 q 419 -7 506 -7 q 346 74 346 -7 q 376 161 346 103 q 115 -7 222 -7 q 51 24 76 -7 q 26 90 26 51 q 182 340 26 225 q 467 449 326 449 q 536 403 536 449 q 517 339 536 397 l 908 850 l 1065 850 l 490 106 m 513 394 q 496 414 513 414 q 456 396 485 414 q 300 271 372 343 q 119 31 119 90 q 138 18 119 18 q 360 171 207 18 q 513 394 513 325 z "},"e":{"ha":467,"x_min":32,"x_max":547,"o":"m 547 406 q 503 329 547 374 q 221 186 436 265 q 135 39 135 75 q 169 13 135 13 q 354 78 238 13 q 519 192 456 133 l 533 174 q 453 115 508 151 q 153 -11 265 -11 q 67 19 100 -11 q 32 103 32 50 q 189 347 32 236 q 478 444 325 444 q 547 406 547 444 m 519 406 q 503 421 519 421 q 250 218 429 421 q 356 261 300 233 q 519 406 519 343 z "},"f":{"ha":346,"x_min":-340,"x_max":879,"o":"m 879 910 q 529 513 879 794 l 378 390 q 350 367 350 376 l 199 163 q 243 157 219 157 q 418 214 332 157 l 426 193 q 243 136 343 136 q 186 144 215 136 l -179 -357 l -340 -356 l 64 196 q 56 235 56 217 q 94 301 56 267 l 161 357 q 175 367 171 363 q 219 422 182 374 q 486 717 361 597 q 840 943 726 943 q 879 910 879 943 m 844 906 q 826 925 844 925 q 397 431 746 925 q 844 906 844 783 z "},"g":{"ha":628,"x_min":-197,"x_max":735,"o":"m 453 64 q 625 158 540 101 q 683 196 675 193 l 694 179 q 424 28 578 93 q 121 -283 249 -204 q -122 -360 -1 -360 q -197 -314 -197 -360 q 238 -6 -197 -179 l 361 151 l 338 132 q 122 18 189 18 q 57 49 83 18 q 33 117 33 76 q 189 354 33 244 q 464 449 326 449 q 533 401 533 449 q 519 350 533 383 l 582 431 l 735 431 l 453 64 m 513 399 q 496 415 513 415 q 336 314 454 415 q 169 132 235 224 q 126 58 126 72 q 149 42 126 42 q 256 94 176 42 q 413 231 329 142 q 513 399 513 339 m 222 -37 q 0 -146 113 -76 q -151 -312 -151 -240 q -119 -337 -151 -337 q 56 -233 -46 -337 q 196 -69 64 -225 l 222 -37 z "},"h":{"ha":597,"x_min":-92,"x_max":874,"o":"m 874 888 q 782 731 874 831 q 396 424 633 569 l 299 294 l 353 338 q 414 385 390 368 q 543 439 490 439 q 594 417 575 439 q 614 363 614 394 q 510 181 614 297 q 386 29 386 26 q 400 17 386 17 q 422 25 406 17 l 482 57 q 644 185 557 97 l 660 168 q 572 94 639 146 q 360 -14 429 -14 q 285 63 285 -14 q 410 267 285 124 q 519 401 519 386 q 508 411 519 411 q 356 314 474 411 q 217 186 249 226 q 74 0 168 125 l -92 0 l 244 438 q 410 629 318 533 q 831 922 693 922 q 874 888 874 922 m 842 885 q 824 901 842 901 q 435 475 736 901 q 842 885 842 749 z "},"i":{"ha":293,"x_min":7,"x_max":536,"o":"m 536 621 q 506 551 536 582 q 436 521 476 521 q 388 540 408 521 q 365 589 365 561 q 396 657 365 626 q 463 686 425 686 q 514 668 492 686 q 536 621 536 650 m 160 115 q 107 36 107 44 q 122 21 107 21 q 344 188 169 21 l 357 172 q 203 42 314 119 q 88 -8 132 -8 q 7 75 7 -8 q 69 214 7 133 l 238 431 l 401 431 l 160 115 z "},"j":{"ha":286,"x_min":-407,"x_max":529,"o":"m 529 618 q 499 549 529 579 q 429 518 469 518 q 379 538 401 518 q 357 586 357 558 q 388 654 357 624 q 456 683 418 683 q 507 665 485 683 q 529 618 529 647 m 111 53 l 339 194 l 349 178 l 83 13 q -90 -203 -22 -136 q -364 -354 -244 -354 q -407 -315 -407 -354 q -382 -249 -407 -287 q -115 -44 -315 -143 q -8 113 -78 21 l 236 431 l 401 431 l 111 53 m -139 -85 q -278 -183 -208 -122 q -371 -315 -371 -264 q -356 -336 -371 -336 q -154 -107 -311 -336 l -139 -85 z "},"k":{"ha":606,"x_min":-94,"x_max":889,"o":"m 889 892 q 428 450 889 756 l 415 442 l 303 294 q 589 439 497 439 q 650 392 650 439 q 576 296 650 338 q 376 249 515 263 q 464 167 464 233 q 429 82 464 131 q 394 28 394 32 q 406 18 394 18 q 415 21 410 18 l 456 40 q 574 122 501 63 q 654 188 646 183 l 669 169 q 594 108 640 143 q 367 -15 432 -15 q 310 7 333 -15 q 286 61 286 28 q 326 164 286 108 q 365 225 365 221 q 310 235 365 242 l 322 256 q 458 306 376 258 q 569 397 540 353 l 571 403 q 556 414 571 414 q 542 411 547 414 q 407 343 469 385 q 78 0 269 251 l -94 0 l 199 375 q 508 714 360 581 q 850 922 740 922 q 889 892 889 922 m 854 881 q 838 899 854 899 q 592 671 764 899 l 460 497 q 663 647 560 560 q 854 881 854 808 z "},"l":{"ha":328,"x_min":22,"x_max":889,"o":"m 889 892 q 669 618 889 815 q 375 382 503 468 q 354 368 347 361 l 189 153 q 110 31 110 50 q 121 19 110 19 q 226 75 146 19 q 396 210 343 158 l 411 193 q 214 38 324 114 q 101 -8 150 -8 q 22 78 22 -8 q 250 454 22 197 q 854 925 665 925 q 889 892 889 925 m 856 888 q 839 903 856 903 q 650 746 774 903 l 525 586 q 413 440 428 463 q 579 574 426 449 q 856 888 856 807 z "},"m":{"ha":910,"x_min":-93,"x_max":976,"o":"m 976 172 q 932 135 971 167 q 676 -8 746 -8 q 621 14 643 -8 q 600 69 600 36 q 622 146 600 111 q 811 365 618 139 q 836 407 836 394 q 826 415 836 415 q 685 331 786 415 q 383 0 553 224 l 221 0 l 476 333 q 521 400 521 390 q 508 411 521 411 q 368 321 471 411 q 267 224 333 290 q 117 56 160 117 l 78 0 l -93 0 l 239 431 l 393 431 l 263 261 l 269 257 q 553 443 451 443 q 618 375 618 443 q 575 257 618 360 q 860 443 753 443 q 931 369 931 443 q 836 197 931 307 q 701 33 701 18 q 717 22 701 22 q 778 49 729 22 l 958 185 q 963 188 961 188 l 976 172 z "},"n":{"ha":600,"x_min":-93,"x_max":663,"o":"m 663 167 q 363 -15 464 -15 q 289 65 289 -15 q 404 256 289 126 q 524 399 524 390 q 514 410 524 410 q 367 322 471 410 q 71 0 263 235 l -93 0 l 239 431 l 396 431 l 260 250 q 546 438 447 438 q 617 360 617 438 q 521 188 617 300 q 389 28 389 36 q 403 17 389 17 q 640 176 429 17 l 644 179 q 649 182 647 182 l 663 167 z "},"o":{"ha":474,"x_min":29,"x_max":546,"o":"m 546 186 q 514 181 531 181 q 447 208 474 181 q 138 -10 278 -10 q 29 99 29 -10 q 196 360 29 242 q 447 447 317 447 q 532 394 532 447 q 463 226 532 347 q 515 204 481 204 q 540 208 528 204 l 546 186 m 511 392 q 492 415 511 415 q 274 253 428 415 q 119 29 119 90 q 144 11 119 11 q 307 92 208 11 q 435 229 392 161 q 426 264 426 249 q 449 329 426 300 q 507 365 472 361 q 511 392 511 378 z "},"p":{"ha":601,"x_min":-368,"x_max":669,"o":"m 669 174 q 560 83 638 142 q 371 -8 433 -8 q 293 71 293 -8 q 326 163 293 114 q 444 301 351 200 q 529 404 529 386 q 513 417 529 417 q 494 411 506 417 q 300 263 425 376 q 88 21 211 182 l -203 -357 l -368 -354 l 240 431 l 396 431 l 267 263 q 550 446 475 446 q 624 371 624 446 q 490 154 624 310 q 396 35 396 40 q 410 22 396 22 q 656 189 475 22 l 669 174 z "},"q":{"ha":647,"x_min":-18,"x_max":747,"o":"m 388 -36 q 571 92 493 32 q 700 189 694 186 l 713 172 q 563 58 728 182 l 444 -24 q 339 -101 346 -92 l 143 -357 l -18 -357 l 386 165 q 353 133 375 156 q 318 100 331 111 q 115 -10 199 -10 q 49 22 74 -10 q 28 96 28 51 q 164 324 28 213 q 469 446 313 446 q 536 403 536 446 q 521 343 536 382 l 586 431 l 747 431 l 388 -36 m 515 396 q 500 413 515 413 q 317 283 453 413 q 153 92 211 182 q 124 33 124 51 q 143 17 124 17 q 222 53 163 17 q 399 208 292 93 q 515 396 515 336 z "},"r":{"ha":465,"x_min":-94,"x_max":622,"o":"m 622 429 q 576 381 622 428 q 529 308 529 333 q 554 297 529 292 l 549 274 q 513 269 531 269 q 425 308 440 269 l 92 26 q 71 0 76 11 l -94 0 l 238 431 l 403 431 l 163 118 l 421 332 q 458 404 424 365 q 564 438 486 438 q 622 429 622 438 z "},"s":{"ha":431,"x_min":15,"x_max":443,"o":"m 443 507 q 375 418 443 458 l 375 413 q 385 369 375 394 q 419 228 419 271 q 354 90 419 154 q 221 11 299 38 q 94 -10 161 -10 q 15 57 15 -10 q 33 111 15 89 q 83 136 53 136 q 128 93 128 136 q 93 43 128 47 q 63 29 63 39 q 82 13 63 13 q 244 174 147 13 q 354 401 324 304 l 108 208 l 93 226 l 360 431 q 429 522 383 522 q 443 507 443 522 z "},"t":{"ha":317,"x_min":7,"x_max":642,"o":"m 472 514 l 581 514 l 565 492 l 456 492 l 151 100 q 107 33 107 47 q 121 22 107 22 q 358 179 181 22 l 371 190 l 385 175 q 85 -8 169 -8 q 7 76 7 -8 q 90 238 7 129 l 289 493 l 201 493 l 218 517 l 307 515 l 475 733 l 642 733 l 472 514 z "},"u":{"ha":600,"x_min":15,"x_max":707,"o":"m 454 101 q 408 32 408 40 q 419 21 408 21 q 435 26 426 21 q 583 129 518 71 l 651 189 l 665 174 q 382 -8 453 -8 q 307 64 307 -8 q 331 142 307 99 q 97 -8 168 -8 q 15 82 15 -8 q 117 276 15 142 l 235 431 l 401 431 l 171 129 q 106 31 106 50 q 119 17 106 17 q 186 50 133 17 q 290 135 224 74 q 539 431 369 208 l 707 431 l 454 101 z "},"v":{"ha":474,"x_min":11,"x_max":547,"o":"m 547 422 q 447 242 547 350 q 501 196 447 196 q 540 203 519 196 l 546 183 q 499 176 521 176 q 425 218 447 176 q 97 -8 244 -8 q 11 86 11 -8 q 94 251 11 146 l 233 431 l 399 431 l 144 101 l 99 33 q 119 15 99 15 q 208 54 142 15 q 417 242 325 121 l 413 278 q 446 383 413 325 q 525 447 483 447 q 547 422 547 447 z "},"w":{"ha":783,"x_min":11,"x_max":851,"o":"m 851 419 q 751 239 851 356 q 804 196 756 196 q 843 201 825 196 l 849 183 q 807 174 831 174 q 729 215 749 174 q 397 -10 538 -10 q 335 13 358 -10 q 308 72 308 35 q 326 139 308 97 q 89 -10 156 -10 q 11 83 11 -10 q 99 254 11 138 l 233 431 l 399 431 l 150 106 q 101 31 101 40 q 118 18 101 18 q 231 83 149 18 q 536 431 328 160 l 703 431 l 444 94 q 404 29 404 40 q 422 14 404 14 q 493 40 435 14 q 719 240 594 90 q 717 274 717 263 q 740 367 717 322 q 828 444 779 444 q 851 419 851 444 z "},"x":{"ha":594,"x_min":-3,"x_max":708,"o":"m 708 385 q 688 319 708 350 q 629 288 664 288 q 588 325 588 288 q 631 375 588 375 l 660 374 q 682 400 682 374 q 657 421 682 421 q 454 226 608 421 q 328 31 328 63 q 346 14 328 14 q 658 201 450 14 l 671 182 q 344 -8 435 -8 q 268 85 279 -8 q 56 -10 140 -10 q -3 44 -3 -10 q 22 115 -3 82 q 85 150 49 150 q 128 115 128 150 q 115 76 128 94 q 82 56 101 56 q 64 60 76 56 q 44 63 51 63 q 22 38 22 63 q 56 13 22 13 q 171 88 100 13 q 400 407 400 338 q 379 422 400 422 q 197 314 306 422 q 142 257 161 275 l 124 272 q 388 444 272 444 q 457 376 457 444 q 453 344 457 360 q 651 443 567 443 q 708 385 708 443 z "},"y":{"ha":597,"x_min":-221,"x_max":701,"o":"m 417 60 q 656 196 536 113 l 665 179 q 393 26 600 128 q 175 -224 253 -156 q -146 -357 22 -357 q -221 -311 -221 -357 q -43 -125 -221 -229 q 214 -6 83 -50 l 367 189 l 353 175 q 100 4 178 4 q 21 96 21 4 q 103 264 21 161 l 232 431 l 396 431 l 161 124 q 111 43 111 57 q 125 29 111 29 q 196 64 138 29 q 290 142 235 89 q 383 236 361 210 q 538 431 407 264 l 701 431 l 417 60 m 196 -32 q -28 -142 78 -76 q -186 -314 -186 -239 q -153 -337 -186 -337 q 40 -214 -79 -337 l 196 -32 z "},"z":{"ha":510,"x_min":-25,"x_max":622,"o":"m 622 432 q 564 368 622 396 q 475 342 518 346 l 207 135 q 335 163 281 163 q 394 121 394 163 q 382 79 394 103 l 369 54 q 376 47 369 47 q 560 185 383 47 l 572 169 q 506 111 542 139 q 281 -8 349 -8 q 217 39 217 -8 q 238 88 217 61 q 258 117 258 114 q 250 122 258 122 q 54 29 168 122 l 29 8 q -8 -10 7 -10 q -25 4 -25 -10 q 61 72 -25 17 q 94 92 83 86 q 111 100 99 94 q 128 107 124 104 l 433 339 l 388 338 q 307 367 338 338 l 94 197 l 82 215 l 293 383 q 289 410 289 399 q 310 454 289 435 q 354 472 329 472 q 388 443 388 472 q 335 378 388 393 q 386 361 350 361 q 457 368 418 361 q 596 453 542 453 q 622 432 622 453 z "},"{":{"ha":417,"x_min":-160,"x_max":847,"o":"m 822 950 q 693 922 728 950 q 614 814 681 913 l 444 563 q 264 397 339 407 q 279 356 279 381 q 231 244 279 313 l -4 -101 q -47 -201 -47 -165 q 43 -247 -47 -243 l 19 -282 q -24 -283 6 -283 q -160 -211 -160 -283 q -87 -60 -160 -164 l 122 251 q 175 354 175 328 q 143 399 175 381 l 156 417 q 332 561 239 424 l 489 793 q 639 971 603 957 q 793 986 679 986 l 847 986 l 822 950 z "},"|":{"ha":694,"x_min":151,"x_max":207,"o":"m 151 -347 l 151 1042 l 207 1042 l 207 -347 l 151 -347 z "},"}":{"ha":417,"x_min":-215,"x_max":811,"o":"m 811 914 q 738 764 811 872 l 589 543 q 538 440 538 468 q 569 396 538 413 l 557 376 q 379 232 476 374 l 163 -90 q 46 -243 78 -218 q -160 -283 -4 -283 q -215 -282 -197 -283 l -194 -253 q -39 -211 -75 -250 q 38 -110 -10 -179 l 268 232 q 447 397 371 386 q 432 438 432 413 q 482 549 432 474 l 654 806 q 701 911 701 875 q 611 957 701 953 l 632 986 l 675 988 q 811 914 811 988 z "},"~":{"ha":926,"x_min":-37,"x_max":625,"o":"m 625 971 q 442 832 553 832 q 285 886 389 832 q 139 939 181 939 q 0 826 64 939 l -37 850 q 142 992 39 992 q 297 939 196 992 q 446 885 399 885 q 588 993 524 885 l 625 971 z "},"¡":{"ha":433,"x_min":-144,"x_max":497,"o":"m 497 442 q 465 367 497 399 q 390 336 433 336 q 339 356 361 336 q 317 406 317 376 q 350 481 317 447 q 425 514 383 514 q 476 493 457 514 q 497 442 497 474 m 58 -193 q -67 -297 -1 -297 q -119 -276 -97 -297 q -144 -225 -144 -254 q -76 -108 -144 -179 l 321 318 l 339 306 l 58 -193 z "},"¢":{"ha":565,"x_min":139,"x_max":697,"o":"m 626 603 q 678 543 678 588 q 657 483 678 510 q 603 456 635 456 q 560 497 560 456 q 603 540 560 533 q 646 563 646 549 q 624 579 646 579 q 404 421 556 579 q 254 196 254 263 q 286 172 254 172 q 596 350 400 172 l 608 333 q 271 149 408 149 l 253 149 l 158 28 l 139 43 l 226 156 q 149 265 149 182 q 303 506 149 397 q 581 606 443 606 q 594 604 590 606 l 678 713 l 697 697 l 626 603 z "},"£":{"ha":796,"x_min":-196,"x_max":1089,"o":"m 1089 704 q 1010 507 1089 606 q 832 403 926 403 q 778 424 800 403 q 754 476 754 444 q 888 654 754 581 l 897 638 q 781 471 781 558 q 832 424 781 424 q 953 490 883 424 q 1064 714 1064 599 q 963 799 1064 799 q 622 490 822 799 q 493 296 522 333 l 690 294 l 689 268 l 467 268 q 279 124 394 188 q 540 75 418 75 q 764 183 660 75 l 779 169 q 700 100 756 144 q 393 -12 554 -12 q 136 39 265 -12 q -62 -6 51 -6 q -196 54 -196 -6 q -47 165 -196 132 q 40 175 -8 175 q 232 139 124 175 q 313 271 282 208 l 129 271 l 131 297 l 326 297 q 394 426 385 410 q 632 694 489 586 q 960 819 796 819 q 1051 790 1017 819 q 1089 704 1089 760 m 106 50 q -83 92 -8 92 q -168 53 -168 92 q -57 17 -168 17 q 106 50 39 17 z "},"⁄":{"ha":368,"x_min":-112,"x_max":767,"o":"m -83 -72 l -112 -46 l 738 864 l 767 839 l -83 -72 z "},"¥":{"ha":722,"x_min":-135,"x_max":957,"o":"m 742 414 l 832 414 l 813 389 l 722 389 l 656 303 l 747 303 l 728 278 l 636 278 l 468 60 q 693 196 578 111 l 701 179 q 458 33 658 143 q 446 26 450 31 q 435 14 440 24 q 332 -108 365 -67 q 229 -224 263 -192 q -71 -357 82 -357 q -135 -314 -135 -357 q 35 -128 -135 -235 q 281 -6 158 -51 l 433 189 l 419 175 q 179 4 249 4 q 115 86 115 4 q 213 278 115 139 l 125 278 l 144 303 l 232 303 l 299 389 l 211 389 l 231 414 l 318 414 l 447 581 q 526 732 526 682 q 476 776 526 776 q 285 689 388 776 q 183 528 183 601 q 226 489 183 489 q 400 654 321 489 l 415 650 q 343 532 390 582 q 225 469 286 469 q 160 538 160 469 q 192 631 160 581 q 478 796 296 796 q 608 676 608 796 q 564 549 608 606 l 460 414 l 599 414 l 817 694 l 957 694 l 742 414 m 440 389 l 374 303 l 513 303 q 546 346 524 318 q 579 389 569 375 l 440 389 m 356 278 q 186 43 186 51 q 203 29 186 29 q 367 142 249 29 q 493 278 443 214 l 356 278 m 263 -32 q 49 -144 153 -78 q -103 -315 -103 -243 q -74 -337 -103 -337 q 111 -211 -6 -337 q 199 -110 150 -171 l 263 -32 z "},"ƒ":{"ha":649,"x_min":-289,"x_max":1133,"o":"m 1133 815 q 1088 672 1133 743 q 967 594 1035 594 q 910 618 932 594 q 888 676 888 642 q 972 836 888 751 l 989 824 q 914 672 914 738 q 971 614 914 614 q 1071 692 1029 614 q 1107 821 1107 758 q 1085 893 1107 863 q 1021 928 1061 928 q 932 899 976 928 q 582 482 851 844 l 794 482 l 794 458 l 567 458 l 253 29 q 11 -251 96 -186 q -161 -314 -69 -314 q -247 -290 -212 -314 q -289 -214 -289 -264 q -267 -154 -289 -181 q -210 -126 -243 -126 q -164 -172 -164 -126 q -199 -211 -164 -203 q -233 -240 -233 -219 q -176 -287 -233 -287 q -35 -178 -114 -287 l 425 458 l 225 458 l 225 482 l 442 482 q 792 872 683 781 q 999 953 886 953 q 1133 815 1133 953 z "},"§":{"ha":593,"x_min":-26,"x_max":822,"o":"m 822 704 q 800 636 822 667 q 740 603 776 603 q 699 642 699 603 q 742 689 699 689 l 751 689 l 765 686 q 790 715 790 686 q 749 753 790 753 q 694 717 718 753 q 628 479 667 675 q 600 349 618 426 q 515 171 572 224 q 272 82 432 93 q 160 -40 210 -11 q 61 -71 108 -71 q -26 10 -26 -71 q -4 78 -26 46 q 56 111 21 111 q 101 69 101 111 q 90 38 101 53 q 61 21 78 21 q 44 25 56 21 q 28 29 33 29 q 4 -1 4 29 q 47 -42 4 -42 q 192 254 131 -42 l 217 375 q 319 560 247 506 q 532 626 385 610 q 583 701 563 679 q 744 776 654 776 q 822 704 822 776 m 524 606 q 444 574 481 601 q 339 307 389 529 q 282 104 306 158 q 447 294 393 110 q 486 458 468 369 q 524 606 506 556 z "},"¤":{"ha":1111,"x_min":406,"x_max":1108,"o":"m 1085 131 l 961 253 q 758 176 872 176 q 556 253 647 176 l 433 131 l 410 154 l 529 278 q 451 479 451 371 q 529 681 451 588 l 406 803 l 429 826 l 551 706 q 757 785 642 785 q 961 706 871 785 l 1085 826 l 1108 803 l 986 681 q 1063 479 1063 592 q 986 278 1063 367 l 1108 154 l 1085 131 m 1025 479 q 947 671 1025 592 q 757 751 869 751 q 567 671 646 751 q 489 481 489 592 q 567 290 489 369 q 757 211 646 211 q 947 289 868 211 q 1025 479 1025 368 z "},"'":{"ha":208,"x_min":281,"x_max":560,"o":"m 313 582 l 281 607 l 514 924 l 560 888 l 313 582 z "},"“":{"ha":711,"x_min":553,"x_max":1138,"o":"m 1138 926 q 1046 875 1097 915 q 988 793 988 828 q 999 768 988 785 q 1008 738 1008 751 q 974 661 1008 694 q 897 628 940 628 q 831 696 831 628 q 951 858 831 772 q 1132 944 1053 928 l 1138 926 m 860 926 q 768 875 819 915 q 710 793 710 828 q 721 768 710 785 q 731 738 731 751 q 696 661 731 694 q 619 628 663 628 q 553 696 553 628 q 674 858 553 772 q 854 944 775 928 l 860 926 z "},"«":{"ha":660,"x_min":117,"x_max":707,"o":"m 483 218 l 458 60 l 432 54 l 347 231 l 696 400 l 707 379 l 483 218 m 253 218 l 228 60 l 201 54 l 117 231 l 465 400 l 476 379 l 253 218 z "},"‹":{"ha":429,"x_min":117,"x_max":476,"o":"m 253 218 l 228 60 l 201 54 l 117 231 l 465 400 l 476 379 l 253 218 z "},"›":{"ha":429,"x_min":35,"x_max":394,"o":"m 46 54 l 35 75 l 260 236 l 283 394 l 310 400 l 394 224 l 46 54 z "},"ﬁ":{"ha":625,"x_min":-340,"x_max":879,"o":"m 868 621 q 838 551 868 582 q 768 521 808 521 q 719 540 740 521 q 697 589 697 561 q 728 657 697 626 q 794 686 757 686 q 846 668 824 686 q 868 621 868 650 m 879 910 q 529 513 879 794 l 378 390 q 350 367 350 376 l 199 163 q 243 157 219 157 q 389 196 303 157 l 569 431 l 733 431 l 492 115 q 439 36 439 47 q 454 21 439 21 q 676 188 501 21 l 689 172 q 535 42 656 129 q 419 -8 464 -8 q 339 75 339 -8 q 364 163 339 117 q 243 136 297 136 q 186 144 215 136 l -179 -357 l -340 -356 l 64 196 q 56 235 56 217 q 94 301 56 267 l 146 344 q 161 356 149 347 q 175 367 171 363 q 219 422 186 378 q 486 717 361 597 q 840 943 726 943 q 879 910 879 943 m 844 906 q 826 925 844 925 q 397 431 746 925 q 844 906 844 783 z "},"ﬂ":{"ha":674,"x_min":-340,"x_max":1235,"o":"m 1235 892 q 1015 618 1235 815 q 721 382 849 468 q 700 368 707 375 l 535 153 q 456 31 456 50 q 467 19 456 19 q 572 75 492 19 q 742 210 689 158 l 757 193 q 560 38 669 114 q 447 -8 496 -8 q 368 79 368 -8 q 390 172 368 122 q 243 136 306 136 q 186 144 218 136 l -179 -357 l -340 -356 l 64 196 q 56 235 56 217 q 94 301 56 267 l 161 357 q 175 367 171 363 q 219 422 182 374 q 486 717 361 597 q 840 943 726 943 q 879 910 879 943 q 529 513 879 794 l 378 390 q 350 367 350 376 l 199 163 q 243 157 221 157 q 407 207 319 157 q 769 638 513 385 q 1200 925 1063 925 q 1235 892 1235 925 m 1201 888 q 1185 903 1201 903 q 996 746 1119 903 l 871 586 q 758 440 774 463 q 925 574 772 449 q 1201 888 1201 807 m 844 906 q 826 925 844 925 q 397 431 746 925 q 844 906 844 783 z "},"–":{"ha":649,"x_min":161,"x_max":692,"o":"m 657 353 l 161 353 l 196 404 l 692 404 l 657 353 z "},"†":{"ha":601,"x_min":-61,"x_max":875,"o":"m 875 649 q 853 594 875 618 q 799 572 831 572 q 686 601 779 572 q 611 614 656 611 q 544 500 582 576 q 481 383 503 417 q 372 258 460 353 q 119 -36 240 118 l -32 -229 l -61 -229 q 44 -86 -21 -176 q 150 56 122 19 q 296 285 221 151 q 465 485 339 361 q 581 613 496 515 q 456 583 540 608 q 410 575 428 575 q 367 615 367 575 q 392 668 367 647 q 447 689 415 689 q 529 669 476 689 q 611 649 583 649 q 688 789 653 713 q 826 938 751 938 q 868 906 868 938 q 736 735 868 861 q 657 649 690 690 q 756 671 721 660 q 829 689 814 689 q 875 649 875 689 z "},"‡":{"ha":601,"x_min":-61,"x_max":850,"o":"m 850 650 q 828 596 850 618 q 774 572 804 572 q 688 594 749 572 q 589 615 628 615 q 560 533 572 588 q 476 460 517 501 q 589 483 515 460 q 664 503 657 503 q 713 461 713 503 q 689 407 713 428 q 632 385 665 385 q 547 406 606 385 q 450 426 488 426 q 371 282 429 399 q 172 28 333 207 q 99 -64 153 7 q -31 -228 56 -119 l -61 -229 q 71 -47 60 -64 q 181 135 115 17 q 278 271 226 218 q 419 426 375 371 q 325 404 393 424 q 243 386 263 386 q 204 429 204 386 q 228 481 204 460 q 281 501 250 501 q 363 482 308 501 q 447 460 418 461 q 479 546 471 506 q 561 615 529 581 q 431 585 514 613 q 382 575 404 575 q 342 617 342 575 q 367 669 342 647 q 421 690 390 690 q 496 669 449 690 q 586 649 539 651 q 658 789 621 700 q 706 886 689 861 q 794 938 742 938 q 835 904 835 938 q 701 736 835 856 q 621 650 661 701 q 728 672 675 656 q 800 690 786 690 q 850 650 850 690 z "},"·":{"ha":236,"x_min":204,"x_max":411,"o":"m 411 500 q 374 413 411 451 q 286 375 335 375 q 226 400 250 375 q 204 460 204 424 q 240 544 204 510 q 326 579 276 579 q 386 557 361 579 q 411 500 411 533 z "},"¶":{"ha":871,"x_min":129,"x_max":1307,"o":"m 1288 901 l 1222 901 l 368 -232 l 331 -232 l 1185 901 l 1021 901 l 171 -232 l 129 -232 l 628 429 q 475 438 519 429 q 372 524 372 458 q 532 776 372 640 q 1010 926 704 926 l 1307 926 l 1288 901 z "},"•":{"ha":926,"x_min":103,"x_max":485,"o":"m 485 472 q 429 336 485 393 q 294 278 374 278 q 158 336 215 278 q 103 472 103 393 q 158 610 103 551 q 294 667 215 667 q 429 610 374 667 q 485 472 485 551 z "},"‚":{"ha":351,"x_min":-82,"x_max":208,"o":"m 208 92 q 94 -61 208 18 q -78 -144 7 -122 l -82 -126 q 61 0 61 -71 q 51 24 61 7 q 40 53 40 39 q 72 126 40 94 q 146 157 104 157 q 208 92 208 157 z "},"„":{"ha":711,"x_min":-87,"x_max":496,"o":"m 496 90 q 375 -72 496 11 q 194 -158 274 -142 l 190 -140 q 290 -82 251 -115 q 340 -7 340 -36 q 331 18 340 0 q 319 49 319 35 q 353 125 319 92 q 429 158 386 158 q 496 90 496 158 m 218 90 q 97 -72 218 11 q -83 -158 -4 -142 l -87 -140 q 13 -82 -26 -115 q 63 -7 63 -36 q 53 18 63 0 q 42 49 42 35 q 75 125 42 92 q 151 158 108 158 q 218 90 218 158 z "},"”":{"ha":711,"x_min":394,"x_max":978,"o":"m 978 878 q 857 715 978 799 q 676 628 754 644 l 672 646 l 676 649 q 679 650 678 650 q 772 704 747 682 q 822 781 822 750 q 813 804 822 788 q 801 835 801 821 q 835 911 801 878 q 911 946 868 946 q 978 878 978 946 m 700 878 q 579 715 700 799 q 399 628 476 644 l 394 646 l 399 649 q 401 650 400 650 q 494 704 469 682 q 544 781 544 750 q 535 804 544 788 q 524 835 524 821 q 557 911 524 878 q 633 946 590 946 q 700 878 700 946 z "},"»":{"ha":660,"x_min":35,"x_max":625,"o":"m 276 54 l 265 75 l 490 236 l 514 394 l 540 400 l 625 224 l 276 54 m 46 54 l 35 75 l 260 236 l 283 394 l 310 400 l 394 224 l 46 54 z "},"…":{"ha":1056,"x_min":38,"x_max":921,"o":"m 921 89 q 888 14 921 47 q 813 -18 854 -18 q 742 53 742 -18 q 774 126 742 96 q 847 158 804 158 q 899 139 876 158 q 921 89 921 118 m 569 89 q 536 15 569 47 q 461 -18 503 -18 q 390 53 390 -18 q 421 126 390 94 q 494 158 453 158 q 547 139 525 158 q 569 89 569 118 m 218 89 q 185 15 218 47 q 110 -18 151 -18 q 38 53 38 -18 q 69 126 38 94 q 143 158 101 158 q 196 139 174 158 q 218 89 218 118 z "},"‰":{"ha":1601,"x_min":224,"x_max":1622,"o":"m 1622 374 q 1540 206 1622 310 q 1404 64 1474 121 q 1253 -4 1319 -4 q 1176 86 1176 -4 q 1314 318 1176 201 q 1565 429 1447 429 q 1622 374 1622 429 m 789 885 q 707 715 789 822 q 571 574 639 628 q 419 507 488 507 q 343 596 343 507 q 481 829 343 713 q 732 940 614 940 q 789 885 789 940 m 339 0 l 224 0 l 1096 925 l 1208 925 l 339 0 m 1122 374 q 1040 206 1122 310 q 904 64 974 121 q 753 -4 819 -4 q 676 86 676 -4 q 814 318 676 201 q 1065 429 947 429 q 1122 374 1122 429 m 1586 375 q 1575 397 1586 397 q 1381 246 1515 397 q 1247 39 1247 97 q 1267 26 1247 26 q 1463 165 1338 26 q 1586 375 1586 301 m 753 886 q 742 908 753 908 q 547 757 683 908 q 414 550 414 607 q 433 536 414 536 q 629 676 503 536 q 753 886 753 814 m 1086 375 q 1075 397 1086 397 q 881 246 1015 397 q 747 39 747 97 q 767 26 747 26 q 963 165 838 26 q 1086 375 1086 301 z "},"¿":{"ha":567,"x_min":-165,"x_max":535,"o":"m 535 451 q 503 378 535 408 q 428 347 471 347 q 376 367 399 347 q 354 415 354 388 q 388 490 354 458 q 463 524 419 524 q 514 503 494 524 q 535 451 535 483 m 368 313 q 222 156 311 240 q 4 -85 56 -1 q -61 -237 -61 -189 q -28 -274 -61 -274 q 147 -179 49 -274 q 246 -10 246 -85 q 214 22 246 22 q 78 -79 149 22 l 65 -67 q 219 46 133 46 q 281 -15 281 46 q 165 -206 281 -112 q -46 -296 54 -296 q -136 -250 -104 -296 q -165 -149 -165 -210 q -12 97 -165 -4 q 124 174 31 126 q 256 246 218 221 q 307 285 292 271 q 329 307 314 290 q 350 328 342 321 l 368 313 z "},"`":{"ha":694,"x_min":365,"x_max":586,"o":"m 556 511 l 365 663 l 585 663 l 586 513 l 556 511 z "},"´":{"ha":694,"x_min":533,"x_max":910,"o":"m 571 515 l 533 517 l 626 663 l 910 663 l 571 515 z "},"ˆ":{"ha":694,"x_min":382,"x_max":714,"o":"m 683 514 l 613 563 l 439 511 l 382 513 l 692 701 l 714 514 l 683 514 z "},"˜":{"ha":694,"x_min":414,"x_max":803,"o":"m 803 650 q 622 517 696 517 q 561 543 596 517 q 511 568 526 568 q 458 532 486 568 l 414 532 q 596 665 547 665 q 657 640 621 665 q 710 614 694 614 q 761 650 732 614 l 803 650 z "},"¯":{"ha":694,"x_min":450,"x_max":792,"o":"m 756 568 l 450 568 l 486 614 l 792 614 l 756 568 z "},"˘":{"ha":694,"x_min":469,"x_max":800,"o":"m 800 678 q 729 563 775 603 q 606 511 668 511 q 469 678 472 511 l 514 678 q 608 601 525 601 q 760 678 700 601 l 800 678 z "},"˙":{"ha":694,"x_min":546,"x_max":722,"o":"m 722 622 q 688 547 722 581 q 610 514 651 514 q 546 579 546 514 q 581 653 546 619 q 657 686 615 686 q 722 622 722 686 z "},"¨":{"ha":694,"x_min":422,"x_max":836,"o":"m 836 621 q 801 547 836 581 q 725 514 767 514 q 660 579 660 514 q 694 653 660 619 q 771 686 729 686 q 836 621 836 686 m 599 621 q 563 547 599 579 q 486 514 528 514 q 422 579 422 514 q 457 653 422 618 q 532 686 492 686 q 599 621 599 686 z "},"˚":{"ha":694,"x_min":525,"x_max":729,"o":"m 729 603 q 699 531 729 561 q 626 500 668 500 q 554 531 583 500 q 525 603 525 560 q 554 675 525 646 q 626 704 583 704 q 699 675 669 704 q 729 603 729 646 m 689 603 q 671 646 689 629 q 626 664 653 664 q 565 603 565 664 q 583 560 565 578 q 626 542 601 542 q 671 560 651 542 q 689 603 689 578 z "},"¸":{"ha":694,"x_min":-10,"x_max":253,"o":"m 253 -124 q 150 -262 253 -190 q -6 -337 65 -322 l -10 -321 l -3 -318 q 119 -207 119 -269 q 111 -186 119 -201 q 101 -160 101 -171 q 131 -93 101 -122 q 196 -65 158 -65 q 253 -124 253 -65 z "},"˝":{"ha":694,"x_min":440,"x_max":878,"o":"m 664 515 l 635 517 l 738 663 l 878 663 l 664 515 m 469 515 l 440 517 l 543 663 l 683 663 l 469 515 z "},"˛":{"ha":694,"x_min":289,"x_max":493,"o":"m 493 0 q 376 -132 376 -76 q 428 -174 376 -174 q 474 -158 451 -174 l 485 -176 q 401 -200 449 -200 q 331 -186 363 -200 q 289 -136 289 -169 q 463 0 289 -79 l 493 0 z "},"ˇ":{"ha":694,"x_min":524,"x_max":856,"o":"m 546 507 l 524 693 l 554 694 l 624 646 l 797 696 l 856 696 l 546 507 z "},"—":{"ha":899,"x_min":86,"x_max":957,"o":"m 865 175 l 86 175 l 179 294 l 957 294 l 865 175 z "},"Æ":{"ha":1354,"x_min":172,"x_max":1617,"o":"m 1617 881 q 1507 703 1617 790 q 1308 621 1403 621 q 1254 664 1254 621 q 1358 792 1254 740 l 1365 775 q 1279 668 1279 724 q 1313 640 1279 640 q 1489 725 1386 640 q 1594 882 1594 811 q 1546 924 1594 924 q 1326 815 1450 924 q 1197 610 1197 704 q 1247 538 1197 558 q 1308 543 1275 543 q 1360 521 1360 543 q 1321 503 1360 503 q 1243 521 1281 503 q 978 342 1122 475 q 814 86 814 190 q 946 7 814 7 q 1094 28 1022 7 q 1268 117 1192 57 q 1367 275 1367 192 q 1271 353 1367 353 q 1061 276 1175 353 q 897 118 956 206 l 881 128 q 958 228 907 174 q 1265 372 1100 372 q 1390 269 1390 372 q 1267 83 1390 171 q 949 -15 1128 -15 q 765 79 792 -15 l 717 0 l 524 0 l 569 67 q 436 122 490 83 q 249 -14 336 -14 q 172 71 172 -14 q 199 149 172 114 q 269 188 228 188 q 322 135 322 188 q 307 89 322 108 q 264 67 290 67 q 244 71 257 67 q 225 75 232 75 q 207 49 207 75 q 251 11 207 11 q 417 139 321 11 q 264 474 264 274 q 306 611 264 550 q 426 681 353 681 q 618 557 542 681 q 669 440 647 508 q 950 743 781 581 q 1269 961 1178 961 q 1285 949 1285 961 q 1222 836 1285 943 q 1521 946 1365 946 q 1617 881 1617 946 m 1211 531 q 1111 640 1124 575 l 994 457 q 1211 531 1064 500 m 1251 938 q 675 413 1107 897 q 683 306 683 340 q 678 222 683 278 l 753 325 q 965 599 821 418 q 1072 728 1046 699 l 1131 793 q 1188 857 1168 836 q 1256 932 1246 926 l 1251 938 m 649 417 q 621 501 636 469 q 436 646 551 646 q 331 585 369 646 q 296 463 296 532 q 433 157 296 294 l 554 304 q 649 417 654 425 m 657 324 q 653 385 657 364 q 568 283 660 396 q 453 142 488 189 q 585 89 501 104 q 642 172 624 144 q 657 324 657 196 z "},"ª":{"ha":556,"x_min":272,"x_max":979,"o":"m 772 658 q 724 585 724 596 q 736 574 724 574 q 758 582 744 574 q 928 715 854 642 l 939 701 q 814 596 900 663 q 707 547 751 547 q 657 565 676 547 q 636 614 636 585 q 663 693 636 643 q 440 547 528 547 q 383 574 406 547 q 361 633 361 599 q 494 847 361 749 q 740 939 619 939 q 799 900 799 939 q 786 851 799 879 l 843 926 l 979 926 l 772 658 m 272 447 l 272 472 l 744 472 l 744 447 l 272 447 m 782 897 q 769 910 782 910 q 581 768 719 910 q 442 585 442 629 q 458 571 442 571 q 650 703 519 571 q 782 897 782 835 z "},"Ø":{"ha":843,"x_min":39,"x_max":1368,"o":"m 1238 813 q 1099 654 1221 697 l 1094 667 q 1206 792 1185 718 l 1063 701 q 1067 674 1067 692 q 865 286 1067 511 q 650 93 765 175 q 374 -6 507 -6 q 178 142 228 -6 l 56 64 l 39 90 l 171 172 q 165 226 165 208 q 406 660 165 447 q 1064 951 735 951 q 1236 844 1215 951 l 1354 918 l 1368 894 l 1238 813 m 1033 717 q 979 749 1018 749 q 794 649 901 749 q 658 481 707 567 l 1033 717 m 1211 829 q 1092 925 1207 925 q 628 679 886 925 q 386 393 510 567 q 299 253 331 314 l 593 439 q 592 461 592 446 q 724 674 592 569 q 963 772 850 772 q 1053 729 1028 772 l 1211 829 m 640 433 q 639 422 639 429 q 669 394 639 394 q 807 472 729 394 q 907 603 868 535 l 640 433 m 1044 665 q 1043 689 1044 681 l 936 621 q 829 465 904 543 q 669 375 742 375 q 603 411 625 375 l 276 204 q 258 113 258 153 q 374 15 258 15 q 776 226 560 15 q 1044 665 1044 483 z "},"Œ":{"ha":1332,"x_min":161,"x_max":1632,"o":"m 1632 889 q 1522 701 1632 797 q 1321 608 1414 608 q 1274 646 1274 608 q 1374 771 1274 715 l 1381 756 q 1297 649 1297 703 q 1322 628 1297 628 q 1503 719 1399 628 q 1608 888 1608 813 q 1572 921 1608 921 q 1353 818 1492 921 q 1150 564 1150 665 q 1153 546 1150 557 q 1185 549 1164 549 q 1261 526 1261 549 q 1224 508 1261 508 q 1144 529 1186 508 q 940 343 1067 488 q 808 92 808 194 q 925 13 808 13 q 1203 92 1071 13 q 1347 281 1347 179 q 1315 338 1347 317 q 1250 356 1289 356 q 874 125 1046 356 l 860 133 q 1018 303 919 236 q 1235 376 1124 376 q 1367 278 1367 376 q 1274 111 1367 188 q 1097 18 1199 49 q 928 -7 1017 -7 q 763 32 833 -7 q 674 165 674 79 q 679 207 674 179 q 315 -7 472 -7 q 194 58 236 -7 q 161 197 161 113 q 210 408 161 308 q 560 778 311 614 q 1036 946 814 946 q 1181 833 1176 946 q 1544 950 1383 950 q 1632 889 1632 950 m 1129 543 q 1078 657 1078 586 q 989 606 1029 624 q 904 475 943 525 q 938 490 926 486 q 1129 543 1040 531 m 1153 849 q 1063 921 1153 921 q 608 661 861 921 q 311 272 401 451 q 249 78 249 147 q 321 15 249 15 q 807 385 499 15 q 989 694 989 606 q 942 740 989 740 q 778 656 875 740 q 608 419 608 510 q 638 394 608 394 q 771 481 696 394 q 871 629 840 558 l 889 626 q 785 468 850 542 q 629 374 701 374 q 576 401 597 374 q 558 460 558 426 q 689 667 558 567 q 922 763 811 763 q 1011 694 1011 763 q 997 629 1011 674 q 1103 721 1054 654 q 1153 849 1153 789 z "},"º":{"ha":556,"x_min":222,"x_max":825,"o":"m 825 715 q 797 711 811 711 q 739 735 763 711 q 474 547 597 547 q 381 640 381 547 q 524 864 381 761 q 740 940 629 940 q 813 894 813 940 q 758 758 813 838 q 756 756 758 757 l 753 751 q 800 731 767 731 q 821 735 811 731 l 825 715 m 222 447 l 222 472 l 600 472 l 600 447 l 222 447 m 794 892 q 778 913 794 913 q 590 772 724 913 q 458 581 458 633 q 479 565 458 565 q 618 635 533 565 q 729 751 688 692 q 722 782 722 768 q 742 839 722 813 q 790 869 761 867 q 794 892 794 882 z "},"æ":{"ha":801,"x_min":25,"x_max":888,"o":"m 888 410 q 553 182 888 292 q 469 42 469 79 q 506 10 469 10 q 854 188 650 10 l 868 171 q 778 104 842 146 q 482 -14 593 -14 q 361 101 361 -14 q 371 154 361 122 q 113 -11 231 -11 q 47 21 72 -11 q 25 92 25 50 q 176 335 25 218 q 461 444 318 444 q 533 394 533 444 q 519 344 533 383 l 583 431 l 718 431 l 665 357 q 843 443 776 443 q 888 410 888 443 m 856 406 q 838 422 856 422 q 579 213 760 422 q 740 286 656 236 q 856 406 856 353 m 511 393 q 496 410 511 410 q 278 247 439 410 q 118 28 118 85 q 136 14 118 14 q 357 167 204 14 q 511 393 511 321 z "},"ı":{"ha":293,"x_min":7,"x_max":401,"o":"m 160 115 q 107 36 107 44 q 122 21 107 21 q 344 188 169 21 l 357 172 q 203 42 314 119 q 88 -8 132 -8 q 7 75 7 -8 q 69 214 7 133 l 238 431 l 401 431 l 160 115 z "},"ø":{"ha":475,"x_min":-39,"x_max":621,"o":"m 518 335 q 463 226 504 296 q 515 204 479 204 q 540 208 528 204 l 546 186 q 514 181 524 181 q 446 208 472 181 q 136 -10 281 -10 q 43 39 68 -10 l -29 -6 l -39 11 l 36 57 q 28 100 28 85 q 75 238 28 171 q 447 447 219 447 q 531 393 531 447 l 526 360 l 611 413 l 621 397 l 518 335 m 511 390 q 492 415 511 415 q 326 306 439 415 q 188 150 243 225 l 433 303 q 506 365 460 360 q 511 390 511 382 m 433 229 q 426 278 426 244 l 158 111 q 119 33 119 53 q 144 11 119 11 q 306 93 207 11 q 433 229 390 163 z "},"œ":{"ha":793,"x_min":24,"x_max":878,"o":"m 878 400 q 831 324 878 365 q 547 183 747 249 q 463 42 463 90 q 501 11 463 11 q 847 189 639 11 l 861 174 q 483 -10 658 -10 q 399 19 432 -10 q 363 101 363 51 l 367 150 q 113 -7 186 -7 q 47 22 72 -7 q 24 90 24 49 q 179 338 24 224 q 463 444 324 444 q 533 397 533 444 q 519 346 533 379 q 801 443 658 443 q 878 400 878 443 m 850 403 q 831 418 850 418 q 665 310 769 418 q 572 213 574 213 q 674 251 626 231 q 850 403 850 336 m 513 393 q 499 410 513 410 q 344 311 456 410 q 207 172 247 226 l 135 75 q 115 31 115 50 q 133 17 115 17 q 357 169 201 17 q 513 393 513 322 z "},"ß":{"ha":617,"x_min":-369,"x_max":976,"o":"m 976 861 q 913 725 976 800 q 600 507 842 642 q 554 456 554 481 q 582 361 554 431 q 608 249 608 292 q 500 76 608 151 q 261 -10 376 -10 q 185 63 185 -10 q 206 122 185 97 q 263 147 228 147 q 307 101 307 147 q 271 53 307 64 q 233 29 233 43 q 260 13 233 13 q 353 69 304 13 q 522 425 485 222 q 535 476 529 463 q 585 525 542 493 q 742 651 681 596 q 899 882 899 800 q 871 907 899 907 q 778 868 829 907 q 575 650 711 819 l 540 607 l -203 -357 l -369 -357 l 196 375 l 308 517 q 894 931 656 931 q 976 861 976 931 z "},"Ä":{"ha":879,"x_min":-11,"x_max":1507,"o":"m 1507 1124 q 1471 1049 1507 1083 q 1394 1015 1436 1015 q 1329 1081 1329 1015 q 1364 1154 1329 1121 q 1440 1188 1399 1188 q 1507 1124 1507 1188 m 1257 1124 q 1221 1049 1257 1083 q 1144 1015 1186 1015 q 1079 1081 1079 1015 q 1114 1154 1079 1121 q 1190 1188 1149 1188 q 1257 1124 1257 1188 m 1317 933 q 1264 863 1300 910 q 1176 736 1232 822 q 947 378 1007 479 l 782 100 q 896 182 839 118 l 910 167 q 765 69 860 96 l 728 0 l 526 0 l 575 74 q 425 160 490 97 q 94 -15 253 -15 q 21 7 51 -15 q -11 75 -11 32 q 19 154 -11 119 q 96 192 53 192 q 138 176 121 192 q 156 135 156 160 q 136 90 156 110 q 90 72 115 72 q 61 81 78 72 q 36 88 44 88 q 21 63 21 88 q 46 21 21 36 q 96 8 68 8 q 408 175 199 8 q 286 469 286 294 q 329 614 286 551 q 454 685 376 685 q 603 611 533 685 q 685 461 663 546 q 806 588 736 518 q 1029 804 969 753 q 1293 938 1189 938 l 1317 933 m 1276 915 q 819 568 1147 910 l 754 500 q 690 432 715 460 q 699 353 699 393 q 686 229 699 288 q 760 328 707 253 q 844 440 815 403 q 1074 715 929 550 q 1222 867 1119 769 q 1263 904 1249 893 l 1276 915 m 665 440 q 594 581 646 519 q 461 650 535 650 q 351 583 393 650 q 317 454 317 526 q 426 192 317 314 q 465 231 439 206 l 504 268 q 606 375 539 303 q 665 440 672 446 m 674 358 q 671 411 674 393 q 443 175 524 244 q 589 93 500 118 q 650 178 631 149 q 674 358 674 213 z "},"Å":{"ha":879,"x_min":-11,"x_max":1413,"o":"m 1413 1103 q 1382 1031 1413 1061 q 1310 1000 1351 1000 q 1238 1031 1267 1000 q 1208 1103 1208 1060 q 1238 1175 1208 1146 q 1310 1204 1267 1204 q 1382 1175 1353 1204 q 1413 1103 1413 1146 m 1317 933 q 1264 863 1300 910 q 1176 736 1232 822 q 947 378 1007 479 l 782 100 q 896 182 839 118 l 910 167 q 765 69 860 96 l 728 0 l 526 0 l 575 74 q 425 160 490 97 q 94 -15 253 -15 q 21 7 51 -15 q -11 75 -11 32 q 19 154 -11 119 q 96 192 53 192 q 138 176 121 192 q 156 135 156 160 q 136 90 156 110 q 90 72 115 72 q 61 81 78 72 q 36 88 44 88 q 21 63 21 88 q 46 21 21 36 q 96 8 68 8 q 408 175 199 8 q 286 469 286 294 q 329 614 286 551 q 454 685 376 685 q 603 611 533 685 q 685 461 663 546 q 806 588 736 518 q 1029 804 969 753 q 1293 938 1189 938 l 1317 933 m 1372 1103 q 1354 1146 1372 1129 q 1310 1164 1336 1164 q 1249 1103 1249 1164 q 1267 1060 1249 1078 q 1310 1042 1285 1042 q 1354 1060 1335 1042 q 1372 1103 1372 1078 m 1276 915 q 819 568 1147 910 l 754 500 q 690 432 715 460 q 699 353 699 393 q 686 229 699 288 q 760 328 707 253 q 844 440 815 403 q 1074 715 929 550 q 1222 867 1119 769 q 1263 904 1249 893 l 1276 915 m 665 440 q 594 581 646 519 q 461 650 535 650 q 351 583 393 650 q 317 454 317 526 q 426 192 317 314 q 465 231 439 206 l 504 268 q 606 375 539 303 q 665 440 672 446 m 674 358 q 671 411 674 393 q 443 175 524 244 q 589 93 500 118 q 650 178 631 149 q 674 358 674 213 z "},"Ç":{"ha":1025,"x_min":322,"x_max":1396,"o":"m 1396 875 q 1110 594 1396 735 q 774 490 963 522 q 701 483 732 483 q 479 114 479 229 q 519 36 479 64 q 607 11 554 11 q 929 135 792 11 q 1021 296 1021 218 q 919 374 1021 374 q 710 279 815 374 q 567 92 621 200 l 550 96 q 690 303 603 221 q 913 400 793 400 q 1004 374 967 400 q 1044 292 1044 344 q 950 122 1044 206 q 606 -11 801 -11 q 440 46 500 -11 q 378 208 378 104 q 500 494 378 360 q 322 679 322 535 q 401 858 322 781 q 575 958 468 925 q 769 986 664 986 q 967 956 875 986 l 957 936 q 793 958 882 958 q 607 931 699 958 q 436 838 506 899 q 350 669 350 761 q 406 565 350 610 q 517 515 451 529 q 872 801 646 669 q 1299 946 1121 946 q 1396 875 1396 946 m 632 -132 q 511 -294 632 -211 q 331 -381 410 -364 l 326 -362 q 426 -304 388 -337 q 476 -229 476 -258 q 467 -204 476 -222 q 456 -174 456 -187 q 489 -97 456 -131 q 565 -64 522 -64 q 632 -132 632 -64 m 1375 874 q 1301 925 1375 925 q 983 767 1181 925 q 719 506 826 640 q 782 513 747 506 q 1097 611 967 547 q 1267 718 1189 656 q 1375 874 1375 804 z "},"É":{"ha":976,"x_min":292,"x_max":1633,"o":"m 1243 1024 l 1203 1025 l 1315 1169 l 1633 1169 l 1243 1024 m 1303 901 q 1092 683 1303 789 q 774 594 942 607 q 765 565 765 581 q 771 550 765 556 q 814 556 789 556 q 879 532 879 556 q 829 511 879 511 q 760 529 793 511 q 546 350 664 489 q 418 106 418 201 q 550 15 418 15 q 835 101 708 15 q 963 283 963 188 q 931 340 963 319 q 865 358 903 358 q 628 267 744 358 q 485 122 536 193 l 471 132 q 631 306 528 235 q 850 383 740 383 q 942 361 906 383 q 988 283 988 335 q 883 107 988 192 q 540 -10 738 -10 q 365 42 432 -10 q 292 203 292 97 q 478 471 292 374 q 747 547 589 529 q 710 592 721 564 l 694 592 q 513 631 590 592 q 415 775 415 681 q 525 942 415 879 q 731 993 618 993 q 892 964 819 993 l 882 947 q 763 965 824 965 q 639 949 700 965 q 510 885 563 929 q 444 761 444 831 q 539 644 444 685 q 700 613 610 614 q 690 657 690 639 q 807 836 690 754 q 1010 929 894 897 q 1211 956 1106 956 q 1303 901 1303 956 m 1279 900 q 1235 933 1279 933 q 851 700 1076 933 q 788 618 814 663 q 1072 697 940 633 q 1279 900 1279 801 z "},"Ñ":{"ha":878,"x_min":-49,"x_max":1426,"o":"m 1426 1160 q 1346 1072 1399 1115 q 1242 1024 1286 1024 q 1181 1051 1218 1024 q 1132 1078 1144 1078 q 1082 1040 1113 1078 l 1036 1040 q 1218 1178 1142 1178 q 1279 1151 1243 1178 q 1332 1125 1317 1125 q 1385 1160 1350 1125 l 1426 1160 m 1426 867 q 1407 801 1426 829 q 1350 768 1386 768 q 1299 815 1299 768 q 1347 863 1299 863 l 1375 860 q 1392 881 1392 860 q 1350 915 1392 915 q 1263 869 1315 915 q 969 481 1176 793 q 872 336 906 383 q 664 74 764 182 q 565 -6 590 -6 q 633 215 611 58 l 656 376 q 810 761 685 585 q 853 821 817 772 q 894 882 879 858 q 771 767 843 847 q 575 514 700 689 q 275 139 408 279 q 31 -6 138 -6 q -49 68 -49 -6 q -21 146 -49 110 q 50 183 10 183 q 106 135 106 183 q 86 90 106 110 q 40 71 65 71 q 17 79 28 71 q 0 88 6 88 q -18 61 -18 88 q 33 17 -18 17 q 260 157 126 17 q 563 538 374 276 q 767 794 690 715 q 944 938 861 894 q 918 892 924 904 q 878 628 907 868 q 747 257 853 419 l 624 68 l 629 64 q 854 349 719 149 l 954 496 q 1174 804 1119 739 q 1356 938 1285 938 q 1426 867 1426 938 z "},"Ö":{"ha":843,"x_min":165,"x_max":1299,"o":"m 1299 1124 q 1264 1049 1299 1082 q 1186 1015 1228 1015 q 1122 1081 1122 1015 q 1157 1154 1122 1121 q 1232 1188 1192 1188 q 1299 1124 1299 1188 m 1049 1124 q 1014 1049 1049 1082 q 936 1015 978 1015 q 872 1081 872 1015 q 907 1154 872 1121 q 982 1188 942 1188 q 1049 1124 1049 1188 m 1239 826 q 1100 654 1239 703 l 1094 667 q 1211 832 1211 729 q 1172 901 1211 875 q 1092 925 1138 925 q 692 735 913 925 q 386 393 525 592 q 258 107 258 211 q 296 38 258 63 q 374 15 328 15 q 776 226 557 15 q 1046 669 1046 489 q 979 749 1046 749 q 753 607 888 749 q 639 422 639 483 q 669 394 639 394 q 822 486 738 394 q 926 640 893 563 l 940 635 q 893 543 931 597 q 664 375 781 375 q 611 400 632 375 q 592 457 592 424 q 724 674 592 568 q 964 774 849 774 q 1067 672 1067 774 q 865 286 1067 511 q 650 93 765 175 q 374 -6 511 -6 q 221 64 279 -6 q 165 225 165 129 q 406 660 165 446 q 1064 951 732 951 q 1181 925 1133 951 q 1239 826 1239 892 z "},"Ü":{"ha":1093,"x_min":331,"x_max":1533,"o":"m 1426 1124 q 1392 1049 1426 1082 q 1314 1015 1356 1015 q 1249 1081 1249 1015 q 1283 1156 1249 1122 q 1360 1188 1318 1188 q 1426 1124 1426 1188 m 1176 1124 q 1142 1049 1176 1082 q 1064 1015 1106 1015 q 999 1081 999 1015 q 1033 1156 999 1122 q 1110 1188 1068 1188 q 1176 1124 1176 1188 m 907 118 q 854 29 854 53 q 872 17 854 17 q 1150 197 947 17 l 1165 182 q 1001 53 1110 129 q 860 -7 917 -7 q 794 25 819 -7 q 771 96 771 56 q 882 303 771 167 l 892 317 l 886 321 q 424 -8 557 -8 q 331 93 331 -8 q 525 410 331 185 l 744 665 q 846 854 846 782 q 747 928 846 928 q 521 863 628 928 q 357 636 357 761 q 378 579 357 601 q 435 556 400 556 q 621 656 526 556 q 726 864 696 736 l 744 860 q 644 640 732 742 q 435 532 549 532 q 363 560 392 532 q 332 632 332 589 q 479 861 332 758 q 750 949 604 949 q 889 913 835 949 q 953 790 953 871 q 807 526 953 696 l 510 175 q 411 32 411 58 q 439 14 411 14 q 896 364 563 14 q 1110 613 1021 496 l 1357 936 l 1533 936 l 907 118 z "},"á":{"ha":631,"x_min":24,"x_max":864,"o":"m 525 515 l 488 517 l 581 663 l 864 663 l 525 515 m 501 119 q 444 35 444 54 q 460 21 444 21 q 485 31 468 21 q 682 186 593 100 l 696 169 q 549 47 626 106 q 425 -10 475 -10 q 368 11 390 -10 q 343 67 343 33 q 374 160 343 106 q 115 -10 224 -10 q 49 21 76 -10 q 24 90 24 50 q 200 353 24 232 q 465 446 333 446 q 533 400 533 446 q 517 343 533 376 l 585 431 l 742 431 l 501 119 m 513 397 q 497 413 513 413 q 289 263 439 413 q 117 35 117 90 q 136 17 117 17 q 286 104 179 17 q 467 297 389 189 q 511 390 501 344 q 513 397 513 392 z "},"à":{"ha":631,"x_min":24,"x_max":742,"o":"m 501 511 l 311 663 l 531 663 l 532 513 l 501 511 m 501 119 q 444 35 444 54 q 460 21 444 21 q 485 31 468 21 q 682 186 593 100 l 696 169 q 549 47 626 106 q 425 -10 475 -10 q 368 11 390 -10 q 343 67 343 33 q 374 160 343 106 q 115 -10 224 -10 q 49 21 76 -10 q 24 90 24 50 q 200 353 24 232 q 465 446 333 446 q 533 400 533 446 q 517 343 533 376 l 585 431 l 742 431 l 501 119 m 513 397 q 497 413 513 413 q 289 263 439 413 q 117 35 117 90 q 136 17 117 17 q 286 104 179 17 q 467 297 389 189 q 511 390 501 344 q 513 397 513 392 z "},"â":{"ha":631,"x_min":24,"x_max":742,"o":"m 657 514 l 586 563 l 413 511 l 356 513 l 665 701 l 688 514 l 657 514 m 501 119 q 444 35 444 54 q 460 21 444 21 q 485 31 468 21 q 682 186 593 100 l 696 169 q 549 47 626 106 q 425 -10 475 -10 q 368 11 390 -10 q 343 67 343 33 q 374 160 343 106 q 115 -10 224 -10 q 49 21 76 -10 q 24 90 24 50 q 200 353 24 232 q 465 446 333 446 q 533 400 533 446 q 517 343 533 376 l 585 431 l 742 431 l 501 119 m 513 397 q 497 413 513 413 q 289 263 439 413 q 117 35 117 90 q 136 17 117 17 q 286 104 179 17 q 467 297 389 189 q 511 390 501 344 q 513 397 513 392 z "},"ä":{"ha":631,"x_min":24,"x_max":776,"o":"m 776 621 q 742 547 776 581 q 665 514 707 514 q 600 579 600 514 q 635 653 600 619 q 711 686 669 686 q 776 621 776 686 m 539 621 q 503 547 539 579 q 426 514 468 514 q 363 579 363 514 q 397 653 363 618 q 472 686 432 686 q 539 621 539 686 m 501 119 q 444 35 444 54 q 460 21 444 21 q 485 31 468 21 q 682 186 593 100 l 696 169 q 549 47 626 106 q 425 -10 475 -10 q 368 11 390 -10 q 343 67 343 33 q 374 160 343 106 q 115 -10 224 -10 q 49 21 76 -10 q 24 90 24 50 q 200 353 24 232 q 465 446 333 446 q 533 400 533 446 q 517 343 533 376 l 585 431 l 742 431 l 501 119 m 513 397 q 497 413 513 413 q 289 263 439 413 q 117 35 117 90 q 136 17 117 17 q 286 104 179 17 q 467 297 389 189 q 511 390 501 344 q 513 397 513 392 z "},"ã":{"ha":631,"x_min":24,"x_max":757,"o":"m 757 650 q 576 517 650 517 q 515 543 550 517 q 465 568 481 568 q 413 532 440 568 l 368 532 q 550 665 501 665 q 611 640 575 665 q 664 614 649 614 q 715 650 686 614 l 757 650 m 501 119 q 444 35 444 54 q 460 21 444 21 q 485 31 468 21 q 682 186 593 100 l 696 169 q 549 47 626 106 q 425 -10 475 -10 q 368 11 390 -10 q 343 67 343 33 q 374 160 343 106 q 115 -10 224 -10 q 49 21 76 -10 q 24 90 24 50 q 200 353 24 232 q 465 446 333 446 q 533 400 533 446 q 517 343 533 376 l 585 431 l 742 431 l 501 119 m 513 397 q 497 413 513 413 q 289 263 439 413 q 117 35 117 90 q 136 17 117 17 q 286 104 179 17 q 467 297 389 189 q 511 390 501 344 q 513 397 513 392 z "},"å":{"ha":631,"x_min":24,"x_max":742,"o":"m 669 603 q 639 531 669 561 q 567 500 608 500 q 494 531 524 500 q 465 603 465 560 q 494 675 465 646 q 567 704 524 704 q 639 675 610 704 q 669 603 669 646 m 501 119 q 444 35 444 54 q 460 21 444 21 q 485 31 468 21 q 682 186 593 100 l 696 169 q 549 47 626 106 q 425 -10 475 -10 q 368 11 390 -10 q 343 67 343 33 q 374 160 343 106 q 115 -10 224 -10 q 49 21 76 -10 q 24 90 24 50 q 200 353 24 232 q 465 446 333 446 q 533 400 533 446 q 517 343 533 376 l 585 431 l 742 431 l 501 119 m 629 603 q 611 646 629 629 q 567 664 593 664 q 506 603 506 664 q 524 560 506 578 q 567 542 542 542 q 611 560 592 542 q 629 603 629 578 m 513 397 q 497 413 513 413 q 289 263 439 413 q 117 35 117 90 q 136 17 117 17 q 286 104 179 17 q 467 297 389 189 q 511 390 501 344 q 513 397 513 392 z "},"ç":{"ha":422,"x_min":-125,"x_max":558,"o":"m 558 385 q 539 325 558 350 q 483 299 517 299 q 442 338 442 299 q 485 382 442 375 q 528 404 528 389 q 506 422 528 422 q 285 265 436 422 q 135 39 135 108 q 168 14 135 14 q 476 192 283 14 l 489 175 q 144 -8 271 -8 q 64 25 99 -8 q 28 104 28 58 q 199 358 28 246 q 472 447 332 447 q 558 385 558 447 m 138 -124 q 35 -262 138 -190 q -121 -337 -50 -322 l -125 -321 l -118 -318 q 4 -207 4 -269 q -4 -186 4 -201 q -14 -160 -14 -171 q 15 -93 -14 -122 q 81 -65 43 -65 q 138 -124 138 -65 z "},"é":{"ha":467,"x_min":32,"x_max":843,"o":"m 504 515 l 467 517 l 560 663 l 843 663 l 504 515 m 547 406 q 503 329 547 374 q 221 186 436 265 q 135 39 135 75 q 169 13 135 13 q 354 78 238 13 q 519 192 456 133 l 533 174 q 453 115 508 151 q 153 -11 265 -11 q 67 19 100 -11 q 32 103 32 50 q 189 347 32 236 q 478 444 325 444 q 547 406 547 444 m 519 406 q 503 421 519 421 q 250 218 429 421 q 356 261 300 233 q 519 406 519 343 z "},"è":{"ha":467,"x_min":32,"x_max":547,"o":"m 494 511 l 304 663 l 524 663 l 525 513 l 494 511 m 547 406 q 503 329 547 374 q 221 186 436 265 q 135 39 135 75 q 169 13 135 13 q 354 78 238 13 q 519 192 456 133 l 533 174 q 453 115 508 151 q 153 -11 265 -11 q 67 19 100 -11 q 32 103 32 50 q 189 347 32 236 q 478 444 325 444 q 547 406 547 444 m 519 406 q 503 421 519 421 q 250 218 429 421 q 356 261 300 233 q 519 406 519 343 z "},"ê":{"ha":467,"x_min":32,"x_max":629,"o":"m 599 514 l 528 563 l 354 511 l 297 513 l 607 701 l 629 514 l 599 514 m 547 406 q 503 329 547 374 q 221 186 436 265 q 135 39 135 75 q 169 13 135 13 q 354 78 238 13 q 519 192 456 133 l 533 174 q 453 115 508 151 q 153 -11 265 -11 q 67 19 100 -11 q 32 103 32 50 q 189 347 32 236 q 478 444 325 444 q 547 406 547 444 m 519 406 q 503 421 519 421 q 250 218 429 421 q 356 261 300 233 q 519 406 519 343 z "},"ë":{"ha":467,"x_min":32,"x_max":719,"o":"m 719 621 q 685 547 719 581 q 608 514 650 514 q 543 579 543 514 q 578 653 543 619 q 654 686 613 686 q 719 621 719 686 m 482 621 q 446 547 482 579 q 369 514 411 514 q 306 579 306 514 q 340 653 306 618 q 415 686 375 686 q 482 621 482 686 m 547 406 q 503 329 547 374 q 221 186 436 265 q 135 39 135 75 q 169 13 135 13 q 354 78 238 13 q 519 192 456 133 l 533 174 q 453 115 508 151 q 153 -11 265 -11 q 67 19 100 -11 q 32 103 32 50 q 189 347 32 236 q 478 444 325 444 q 547 406 547 444 m 519 406 q 503 421 519 421 q 250 218 429 421 q 356 261 300 233 q 519 406 519 343 z "},"í":{"ha":293,"x_min":7,"x_max":693,"o":"m 372 515 l 335 517 l 428 663 l 693 663 l 372 515 m 160 115 q 107 36 107 44 q 122 21 107 21 q 344 188 169 21 l 357 172 q 203 42 314 119 q 88 -8 132 -8 q 7 75 7 -8 q 69 214 7 133 l 238 431 l 401 431 l 160 115 z "},"ì":{"ha":293,"x_min":7,"x_max":401,"o":"m 347 511 l 157 663 l 376 663 l 378 513 l 347 511 m 160 115 q 107 36 107 44 q 122 21 107 21 q 344 188 169 21 l 357 172 q 203 42 314 119 q 88 -8 132 -8 q 7 75 7 -8 q 69 214 7 133 l 238 431 l 401 431 l 160 115 z "},"î":{"ha":293,"x_min":7,"x_max":506,"o":"m 475 514 l 404 563 l 231 511 l 174 513 l 483 701 l 506 514 l 475 514 m 160 115 q 107 36 107 44 q 122 21 107 21 q 344 188 169 21 l 357 172 q 203 42 314 119 q 88 -8 132 -8 q 7 75 7 -8 q 69 214 7 133 l 238 431 l 401 431 l 160 115 z "},"ï":{"ha":293,"x_min":7,"x_max":590,"o":"m 590 621 q 554 547 590 579 q 478 514 519 514 q 413 579 413 514 q 447 654 413 621 q 524 686 482 686 q 590 621 590 686 m 381 621 q 344 547 381 581 q 268 514 308 514 q 203 579 203 514 q 238 653 203 619 q 314 686 272 686 q 381 621 381 686 m 160 115 q 107 36 107 44 q 122 21 107 21 q 344 188 169 21 l 357 172 q 203 42 314 119 q 88 -8 132 -8 q 7 75 7 -8 q 69 214 7 133 l 238 431 l 401 431 l 160 115 z "},"ñ":{"ha":600,"x_min":-93,"x_max":746,"o":"m 746 650 q 565 517 639 517 q 504 543 539 517 q 454 568 469 568 q 401 532 429 568 l 357 532 q 539 665 490 665 q 600 640 564 665 q 653 614 638 614 q 704 650 675 614 l 746 650 m 663 167 q 363 -15 464 -15 q 289 65 289 -15 q 404 256 289 126 q 524 399 524 390 q 514 410 524 410 q 367 322 471 410 q 71 0 263 235 l -93 0 l 239 431 l 396 431 l 260 250 q 546 438 447 438 q 617 360 617 438 q 521 188 617 300 q 389 28 389 36 q 403 17 389 17 q 640 176 429 17 l 644 179 q 649 182 647 182 l 663 167 z "},"ó":{"ha":474,"x_min":29,"x_max":797,"o":"m 458 515 l 421 517 l 514 663 l 797 663 l 458 515 m 546 186 q 514 181 531 181 q 447 208 474 181 q 138 -10 278 -10 q 29 99 29 -10 q 196 360 29 242 q 447 447 317 447 q 532 394 532 447 q 463 226 532 347 q 515 204 481 204 q 540 208 528 204 l 546 186 m 511 392 q 492 415 511 415 q 274 253 428 415 q 119 29 119 90 q 144 11 119 11 q 307 92 208 11 q 435 229 392 161 q 426 264 426 249 q 449 329 426 300 q 507 365 472 361 q 511 392 511 378 z "},"ò":{"ha":474,"x_min":29,"x_max":546,"o":"m 461 511 l 271 663 l 490 663 l 492 513 l 461 511 m 546 186 q 514 181 531 181 q 447 208 474 181 q 138 -10 278 -10 q 29 99 29 -10 q 196 360 29 242 q 447 447 317 447 q 532 394 532 447 q 463 226 532 347 q 515 204 481 204 q 540 208 528 204 l 546 186 m 511 392 q 492 415 511 415 q 274 253 428 415 q 119 29 119 90 q 144 11 119 11 q 307 92 208 11 q 435 229 392 161 q 426 264 426 249 q 449 329 426 300 q 507 365 472 361 q 511 392 511 378 z "},"ô":{"ha":474,"x_min":29,"x_max":611,"o":"m 581 514 l 510 563 l 336 511 l 279 513 l 589 701 l 611 514 l 581 514 m 546 186 q 514 181 531 181 q 447 208 474 181 q 138 -10 278 -10 q 29 99 29 -10 q 196 360 29 242 q 447 447 317 447 q 532 394 532 447 q 463 226 532 347 q 515 204 481 204 q 540 208 528 204 l 546 186 m 511 392 q 492 415 511 415 q 274 253 428 415 q 119 29 119 90 q 144 11 119 11 q 307 92 208 11 q 435 229 392 161 q 426 264 426 249 q 449 329 426 300 q 507 365 472 361 q 511 392 511 378 z "},"ö":{"ha":474,"x_min":29,"x_max":692,"o":"m 692 621 q 657 547 692 581 q 581 514 622 514 q 515 579 515 514 q 550 653 515 619 q 626 686 585 686 q 692 621 692 686 m 454 621 q 418 547 454 579 q 342 514 383 514 q 278 579 278 514 q 313 653 278 618 q 388 686 347 686 q 454 621 454 686 m 546 186 q 514 181 531 181 q 447 208 474 181 q 138 -10 278 -10 q 29 99 29 -10 q 196 360 29 242 q 447 447 317 447 q 532 394 532 447 q 463 226 532 347 q 515 204 481 204 q 540 208 528 204 l 546 186 m 511 392 q 492 415 511 415 q 274 253 428 415 q 119 29 119 90 q 144 11 119 11 q 307 92 208 11 q 435 229 392 161 q 426 264 426 249 q 449 329 426 300 q 507 365 472 361 q 511 392 511 378 z "},"õ":{"ha":474,"x_min":29,"x_max":700,"o":"m 700 650 q 519 517 593 517 q 458 543 493 517 q 408 568 424 568 q 356 532 383 568 l 311 532 q 493 665 444 665 q 554 640 518 665 q 607 614 592 614 q 658 650 629 614 l 700 650 m 546 186 q 514 181 531 181 q 447 208 474 181 q 138 -10 278 -10 q 29 99 29 -10 q 196 360 29 242 q 447 447 317 447 q 532 394 532 447 q 463 226 532 347 q 515 204 481 204 q 540 208 528 204 l 546 186 m 511 392 q 492 415 511 415 q 274 253 428 415 q 119 29 119 90 q 144 11 119 11 q 307 92 208 11 q 435 229 392 161 q 426 264 426 249 q 449 329 426 300 q 507 365 472 361 q 511 392 511 378 z "},"ú":{"ha":600,"x_min":15,"x_max":860,"o":"m 521 515 l 483 517 l 576 663 l 860 663 l 521 515 m 454 101 q 408 32 408 40 q 419 21 408 21 q 435 26 426 21 q 583 129 518 71 l 651 189 l 665 174 q 382 -8 453 -8 q 307 64 307 -8 q 331 142 307 99 q 97 -8 168 -8 q 15 82 15 -8 q 117 276 15 142 l 235 431 l 401 431 l 171 129 q 106 31 106 50 q 119 17 106 17 q 186 50 133 17 q 290 135 224 74 q 539 431 369 208 l 707 431 l 454 101 z "},"ù":{"ha":600,"x_min":15,"x_max":707,"o":"m 482 511 l 292 663 l 511 663 l 513 513 l 482 511 m 454 101 q 408 32 408 40 q 419 21 408 21 q 435 26 426 21 q 583 129 518 71 l 651 189 l 665 174 q 382 -8 453 -8 q 307 64 307 -8 q 331 142 307 99 q 97 -8 168 -8 q 15 82 15 -8 q 117 276 15 142 l 235 431 l 401 431 l 171 129 q 106 31 106 50 q 119 17 106 17 q 186 50 133 17 q 290 135 224 74 q 539 431 369 208 l 707 431 l 454 101 z "},"û":{"ha":600,"x_min":15,"x_max":707,"o":"m 619 514 l 549 563 l 375 511 l 318 513 l 628 701 l 650 514 l 619 514 m 454 101 q 408 32 408 40 q 419 21 408 21 q 435 26 426 21 q 583 129 518 71 l 651 189 l 665 174 q 382 -8 453 -8 q 307 64 307 -8 q 331 142 307 99 q 97 -8 168 -8 q 15 82 15 -8 q 117 276 15 142 l 235 431 l 401 431 l 171 129 q 106 31 106 50 q 119 17 106 17 q 186 50 133 17 q 290 135 224 74 q 539 431 369 208 l 707 431 l 454 101 z "},"ü":{"ha":600,"x_min":15,"x_max":758,"o":"m 758 621 q 724 547 758 581 q 647 514 689 514 q 582 579 582 514 q 617 653 582 619 q 693 686 651 686 q 758 621 758 686 m 521 621 q 485 547 521 579 q 408 514 450 514 q 344 579 344 514 q 379 653 344 618 q 454 686 414 686 q 521 621 521 686 m 454 101 q 408 32 408 40 q 419 21 408 21 q 435 26 426 21 q 583 129 518 71 l 651 189 l 665 174 q 382 -8 453 -8 q 307 64 307 -8 q 331 142 307 99 q 97 -8 168 -8 q 15 82 15 -8 q 117 276 15 142 l 235 431 l 401 431 l 171 129 q 106 31 106 50 q 119 17 106 17 q 186 50 133 17 q 290 135 224 74 q 539 431 369 208 l 707 431 l 454 101 z "},"°":{"ha":611,"x_min":418,"x_max":789,"o":"m 789 725 q 735 594 789 649 q 604 540 681 540 q 474 594 528 540 q 418 725 418 649 q 472 856 418 801 q 603 910 526 910 q 735 856 681 910 q 789 725 789 801 m 729 725 q 693 814 729 778 q 604 850 657 850 q 515 814 553 850 q 479 725 479 778 q 515 636 479 674 q 604 600 553 600 q 693 636 657 600 q 729 725 729 674 z "},"®":{"ha":879,"x_min":496,"x_max":1131,"o":"m 1131 744 q 1038 521 1131 614 q 814 428 944 428 q 589 519 682 428 q 496 744 496 613 q 589 969 496 876 q 814 1063 683 1063 q 1038 969 944 1063 q 1131 744 1131 876 m 1103 744 q 1018 949 1103 864 q 814 1033 933 1033 q 608 950 693 1033 q 524 744 524 865 q 608 539 524 624 q 814 454 693 454 q 1018 540 933 454 q 1103 744 1103 625 m 1044 825 q 939 736 1044 754 q 951 697 951 714 q 897 611 951 676 l 903 611 q 993 671 925 611 l 1004 660 q 882 590 931 590 q 849 625 849 590 q 882 683 849 650 q 915 726 915 717 q 914 735 915 732 q 901 744 901 735 q 914 757 901 757 q 928 751 919 757 q 986 850 986 779 q 983 867 986 856 q 914 782 958 850 q 810 643 844 674 q 646 590 749 590 q 575 632 575 590 q 590 663 575 650 q 624 676 606 676 q 647 656 647 676 q 617 626 647 626 q 601 629 607 626 q 649 610 608 610 q 800 725 713 610 q 896 831 853 796 q 972 882 925 854 q 882 900 939 900 q 753 871 815 900 q 676 775 676 835 q 714 740 676 740 q 800 781 757 740 q 857 886 836 815 l 876 883 q 706 721 839 721 q 653 765 653 721 q 740 881 653 836 q 889 918 811 918 q 988 899 944 918 q 1044 825 1044 874 z "},"©":{"ha":1204,"x_min":318,"x_max":1274,"o":"m 1274 463 q 1133 125 1274 265 q 797 -15 994 -15 q 458 124 599 -15 q 318 463 318 264 q 458 801 318 661 q 797 940 599 940 q 1135 800 994 940 q 1274 463 1274 660 m 1246 463 q 1115 781 1246 649 q 797 913 983 913 q 478 782 610 913 q 346 463 346 650 q 478 144 346 275 q 797 13 610 13 q 1114 144 982 13 q 1246 463 1246 276 m 1113 663 q 1015 539 1113 600 q 864 469 947 496 q 710 438 786 446 q 592 240 592 299 q 665 182 592 182 q 844 249 769 182 q 892 332 892 290 q 833 376 892 376 q 639 217 714 376 l 621 221 q 838 400 693 400 q 917 336 917 400 q 863 239 917 288 q 657 161 776 161 q 560 193 596 161 q 521 288 521 228 q 585 444 521 365 q 481 551 481 478 q 574 688 481 639 q 744 728 649 728 q 863 710 810 728 l 853 689 q 753 704 803 704 q 597 669 669 704 q 508 550 508 625 q 601 465 508 485 q 833 639 715 579 q 1053 706 967 706 q 1113 663 1113 706 m 1089 657 q 1047 685 1089 685 q 874 600 981 685 q 728 458 786 531 q 938 517 853 475 q 1089 657 1089 590 z "},"™":{"ha":1228,"x_min":281,"x_max":1633,"o":"m 1633 936 q 1385 588 1532 819 q 1297 424 1297 447 q 1304 418 1297 418 q 1399 479 1332 418 l 1422 503 q 1447 526 1438 518 l 1463 514 q 1288 394 1343 394 q 1232 468 1232 394 q 1468 813 1232 576 q 1576 915 1572 913 q 1492 868 1547 910 q 1199 526 1394 796 q 1126 432 1140 447 q 1061 396 1093 396 q 1018 453 1018 396 q 1090 617 1018 521 q 1353 879 1213 774 l 1399 914 q 1024 574 1299 903 q 881 415 915 442 q 822 393 851 393 q 778 438 778 393 q 796 485 778 464 q 840 507 814 507 q 874 479 874 507 q 861 449 874 463 q 831 435 847 435 q 815 439 822 435 l 808 442 q 807 438 807 440 q 829 415 807 415 q 1082 676 863 415 q 1429 936 1301 936 q 1457 933 1447 936 q 1294 744 1393 876 q 1081 425 1081 451 q 1085 421 1081 421 l 1286 679 q 1614 938 1488 938 q 1633 936 1626 938 m 1115 915 q 926 854 1026 854 q 894 856 906 854 l 906 843 q 789 681 857 808 q 683 517 731 567 q 393 394 567 394 q 281 460 281 394 q 301 508 281 488 q 350 531 324 531 q 388 496 388 531 q 343 454 388 454 q 310 464 349 454 l 308 463 q 390 417 308 417 q 513 465 457 417 q 597 561 550 499 q 676 663 667 651 q 817 799 751 751 q 894 856 869 835 q 757 878 854 858 q 619 896 671 896 q 508 857 558 896 q 456 756 456 815 q 483 710 456 726 q 538 694 507 694 q 669 738 603 694 q 760 840 738 781 l 781 842 q 685 721 763 774 q 538 671 610 671 q 467 689 497 671 q 429 749 429 711 q 526 893 429 838 q 703 942 608 942 q 915 921 785 942 q 1029 908 1000 908 q 1108 928 1076 908 l 1115 915 z "},"≠":{"ha":694,"x_min":-124,"x_max":479,"o":"m 150 342 l 69 168 l 25 178 l 100 342 l -124 342 l -124 390 l 124 390 l 193 539 l -124 539 l -124 589 l 217 589 l 293 749 l 338 738 l 267 589 l 479 589 l 479 539 l 243 539 l 174 390 l 479 390 l 479 342 l 150 342 z "},"∞":{"ha":926,"x_min":-142,"x_max":731,"o":"m 731 471 q 675 325 731 382 q 531 267 619 267 q 294 433 403 267 q 60 268 188 268 q -87 326 -32 268 q -142 476 -142 383 q -85 622 -142 565 q 60 679 -29 679 q 293 513 186 679 q 531 679 403 679 q 676 619 621 679 q 731 471 731 563 m 674 474 q 633 585 674 540 q 526 631 592 631 q 322 474 429 631 q 528 315 422 315 q 635 361 594 315 q 674 474 674 406 m 265 472 q 61 631 164 631 q -47 585 -6 631 q -86 472 -86 540 q -44 361 -86 406 q 63 317 -3 317 q 265 472 163 317 z "},"±":{"ha":649,"x_min":-25,"x_max":682,"o":"m 647 353 l 428 353 l 278 133 l 218 133 l 368 353 l 151 353 l 188 404 l 403 404 l 554 624 l 614 624 l 464 404 l 682 404 l 647 353 m 471 19 l -25 19 l 10 71 l 506 71 l 471 19 z "},"≤":{"ha":694,"x_min":-122,"x_max":479,"o":"m -122 483 l -122 535 l 479 799 l 479 744 l -61 510 l 479 276 l 479 221 l -122 483 m -122 128 l -122 179 l 479 179 l 479 128 l -122 128 z "},"≥":{"ha":694,"x_min":-122,"x_max":479,"o":"m -122 221 l -122 276 l 418 510 l -122 744 l -122 799 l 479 535 l 479 483 l -122 221 m -122 128 l -122 179 l 479 179 l 479 128 l -122 128 z "},"µ":{"ha":658,"x_min":-233,"x_max":725,"o":"m 474 101 q 426 32 426 39 q 439 21 426 21 q 453 26 444 21 q 603 129 542 72 q 669 189 658 181 l 683 174 q 401 -8 501 -8 q 325 64 325 -8 q 349 142 325 99 q 115 -8 186 -8 q 43 35 71 -8 l -65 -204 l -233 -204 l 254 431 l 421 431 l 189 129 q 124 31 124 39 q 138 17 124 17 q 204 50 154 17 q 558 431 331 133 l 725 431 l 474 101 z "},"∂":{"ha":694,"x_min":-115,"x_max":472,"o":"m 472 322 q 421 117 472 196 q 181 -17 333 -17 q -31 78 56 -17 q -115 296 -115 171 q -33 513 -115 422 q 178 606 53 606 q 401 481 318 606 q 379 540 396 493 q 357 599 367 578 q 103 847 279 769 q -33 883 47 871 l -25 935 q 290 790 172 907 q 472 322 472 613 m 417 303 q 356 483 417 411 q 186 561 292 561 q 10 479 81 561 q -58 293 -58 400 q 8 110 -58 188 q 181 28 78 28 q 356 114 288 28 q 417 303 417 193 z "},"∑":{"ha":926,"x_min":-124,"x_max":657,"o":"m -124 -347 l -124 -287 l 225 378 l -124 985 l -124 1042 l 644 1042 l 644 742 l 592 742 l 589 989 l -62 989 l 290 378 l -62 -296 l 601 -296 l 604 -51 l 657 -51 l 657 -347 l -124 -347 z "},"∏":{"ha":943,"x_min":-121,"x_max":726,"o":"m 447 -347 l 447 -296 l 564 -296 l 564 990 l 42 990 l 42 -296 l 157 -296 l 157 -347 l -121 -347 l -121 -296 l -14 -296 l -14 990 l -121 990 l -121 1042 l 726 1042 l 726 990 l 619 990 l 619 -296 l 726 -296 l 726 -347 l 447 -347 z "},"π":{"ha":738,"x_min":-137,"x_max":538,"o":"m 438 614 l 438 0 l 382 0 l 382 614 l 19 614 l 19 0 l -36 0 l -36 614 l -137 614 l -137 664 l 538 664 l 538 614 l 438 614 z "},"∫":{"ha":694,"x_min":1,"x_max":356,"o":"m 339 976 q 283 992 308 992 q 210 924 214 992 q 206 817 206 869 l 206 -131 q 189 -285 206 -253 q 67 -346 157 -346 q 1 -332 38 -346 l 18 -282 q 72 -297 49 -297 q 146 -242 132 -297 q 150 -139 150 -224 l 150 825 l 151 879 q 181 1000 154 968 q 281 1042 217 1042 q 356 1026 313 1042 l 339 976 z "},"Ω":{"ha":926,"x_min":-129,"x_max":718,"o":"m 363 0 l 363 47 l 399 68 q 661 496 661 228 q 561 775 661 658 q 296 897 456 897 q 28 776 133 897 q -74 496 -74 661 q 226 47 -74 214 l 226 0 l -129 0 l -129 50 l 153 50 q -129 500 -129 211 q -11 815 -129 685 q 294 949 111 949 q 600 815 478 949 q 718 500 718 685 q 435 50 718 211 l 718 50 l 718 0 l 363 0 z "},"¬":{"ha":694,"x_min":-122,"x_max":479,"o":"m 424 0 l 424 318 l -122 318 l -122 371 l 479 371 l 479 0 l 424 0 z "},"√":{"ha":926,"x_min":-169,"x_max":757,"o":"m 471 1097 l 131 0 l 72 0 l -62 438 l -169 438 l -169 489 l -18 489 l 49 278 q 75 186 58 247 q 100 93 90 124 l 103 93 q 140 221 100 81 l 181 361 l 424 1150 l 757 1150 l 757 1097 l 471 1097 z "},"≈":{"ha":694,"x_min":-153,"x_max":510,"o":"m 510 628 q 326 488 436 488 q 171 542 274 488 q 24 596 69 596 q -115 483 -51 596 l -153 507 q 26 647 -82 647 q 182 594 79 647 q 331 540 285 540 q 472 650 407 540 l 510 628 m 510 424 q 326 285 436 285 q 174 339 272 285 q 24 392 74 392 q -115 279 -51 392 l -153 304 q 26 444 -78 444 q 182 392 81 444 q 331 338 283 338 q 472 447 408 338 l 510 424 z "},"Δ":{"ha":926,"x_min":-122,"x_max":710,"o":"m -122 0 l 264 926 l 322 926 l 710 0 l -122 0 m 293 858 l -42 51 l 629 51 l 293 858 z "}," ":{"ha":347,"x_min":0,"x_max":0,"o":""},"À":{"ha":879,"x_min":-11,"x_max":1318,"o":"m 1288 1019 l 1097 1171 l 1317 1171 l 1318 1021 l 1288 1019 m 1317 933 q 1264 863 1300 910 q 1176 736 1232 822 q 947 378 1007 479 l 782 100 q 896 182 839 118 l 910 167 q 765 69 860 96 l 728 0 l 526 0 l 575 74 q 425 160 490 97 q 94 -15 253 -15 q 21 7 51 -15 q -11 75 -11 32 q 19 154 -11 119 q 96 192 53 192 q 138 176 121 192 q 156 135 156 160 q 136 90 156 110 q 90 72 115 72 q 61 81 78 72 q 36 88 44 88 q 21 63 21 88 q 46 21 21 36 q 96 8 68 8 q 408 175 199 8 q 286 469 286 294 q 329 614 286 551 q 454 685 376 685 q 603 611 533 685 q 685 461 663 546 q 806 588 736 518 q 1029 804 969 753 q 1293 938 1189 938 l 1317 933 m 1276 915 q 819 568 1147 910 l 754 500 q 690 432 715 460 q 699 353 699 393 q 686 229 699 288 q 760 328 707 253 q 844 440 815 403 q 1074 715 929 550 q 1222 867 1119 769 q 1263 904 1249 893 l 1276 915 m 665 440 q 594 581 646 519 q 461 650 535 650 q 351 583 393 650 q 317 454 317 526 q 426 192 317 314 q 465 231 439 206 l 504 268 q 606 375 539 303 q 665 440 672 446 m 674 358 q 671 411 674 393 q 443 175 524 244 q 589 93 500 118 q 650 178 631 149 q 674 358 674 213 z "},"Ã":{"ha":879,"x_min":-11,"x_max":1522,"o":"m 1522 1160 q 1442 1072 1494 1115 q 1338 1024 1382 1024 q 1276 1051 1314 1024 q 1228 1078 1240 1078 q 1178 1040 1208 1078 l 1132 1040 q 1314 1178 1238 1178 q 1375 1151 1339 1178 q 1428 1125 1413 1125 q 1481 1160 1446 1125 l 1522 1160 m 1317 933 q 1264 863 1300 910 q 1176 736 1232 822 q 947 378 1007 479 l 782 100 q 896 182 839 118 l 910 167 q 765 69 860 96 l 728 0 l 526 0 l 575 74 q 425 160 490 97 q 94 -15 253 -15 q 21 7 51 -15 q -11 75 -11 32 q 19 154 -11 119 q 96 192 53 192 q 138 176 121 192 q 156 135 156 160 q 136 90 156 110 q 90 72 115 72 q 61 81 78 72 q 36 88 44 88 q 21 63 21 88 q 46 21 21 36 q 96 8 68 8 q 408 175 199 8 q 286 469 286 294 q 329 614 286 551 q 454 685 376 685 q 603 611 533 685 q 685 461 663 546 q 806 588 736 518 q 1029 804 969 753 q 1293 938 1189 938 l 1317 933 m 1276 915 q 819 568 1147 910 l 754 500 q 690 432 715 460 q 699 353 699 393 q 686 229 699 288 q 760 328 707 253 q 844 440 815 403 q 1074 715 929 550 q 1222 867 1119 769 q 1263 904 1249 893 l 1276 915 m 665 440 q 594 581 646 519 q 461 650 535 650 q 351 583 393 650 q 317 454 317 526 q 426 192 317 314 q 465 231 439 206 l 504 268 q 606 375 539 303 q 665 440 672 446 m 674 358 q 671 411 674 393 q 443 175 524 244 q 589 93 500 118 q 650 178 631 149 q 674 358 674 213 z "},"Õ":{"ha":843,"x_min":165,"x_max":1314,"o":"m 1314 1160 q 1233 1074 1285 1115 q 1131 1024 1174 1024 q 1068 1051 1104 1024 q 1019 1078 1032 1078 q 969 1040 1000 1078 l 925 1040 q 1107 1178 1028 1178 q 1168 1151 1131 1178 q 1219 1125 1206 1125 q 1272 1160 1242 1125 l 1314 1160 m 1239 826 q 1100 654 1239 703 l 1094 667 q 1211 832 1211 729 q 1172 901 1211 875 q 1092 925 1138 925 q 692 735 913 925 q 386 393 525 592 q 258 107 258 211 q 296 38 258 63 q 374 15 328 15 q 776 226 557 15 q 1046 669 1046 489 q 979 749 1046 749 q 753 607 888 749 q 639 422 639 483 q 669 394 639 394 q 822 486 738 394 q 926 640 893 563 l 940 635 q 893 543 931 597 q 664 375 781 375 q 611 400 632 375 q 592 457 592 424 q 724 674 592 568 q 964 774 849 774 q 1067 672 1067 774 q 865 286 1067 511 q 650 93 765 175 q 374 -6 511 -6 q 221 64 279 -6 q 165 225 165 129 q 406 660 165 446 q 1064 951 732 951 q 1181 925 1133 951 q 1239 826 1239 892 z "},"÷":{"ha":649,"x_min":163,"x_max":692,"o":"m 571 513 q 553 471 571 489 q 511 453 535 453 q 469 471 488 453 q 451 513 451 489 q 469 556 451 538 q 511 572 486 572 q 553 554 535 572 q 571 513 571 536 m 657 353 l 163 353 l 197 404 l 692 404 l 657 353 m 404 242 q 386 200 404 218 q 344 182 368 182 q 301 200 319 182 q 283 242 283 217 q 301 283 283 265 q 343 301 319 301 q 386 285 368 301 q 404 242 404 267 z "},"◊":{"ha":926,"x_min":-67,"x_max":654,"o":"m 294 -36 l -67 464 l 294 963 l 654 464 l 294 -36 m 294 868 l 0 464 l 294 60 l 588 464 l 294 868 z "},"ÿ":{"ha":597,"x_min":-221,"x_max":751,"o":"m 751 621 q 717 547 751 581 q 640 514 682 514 q 575 579 575 514 q 610 653 575 619 q 686 686 644 686 q 751 621 751 686 m 514 621 q 478 547 514 579 q 401 514 443 514 q 338 579 338 514 q 372 653 338 618 q 447 686 407 686 q 514 621 514 686 m 417 60 q 656 196 536 113 l 665 179 q 393 26 600 128 q 175 -224 253 -156 q -146 -357 22 -357 q -221 -311 -221 -357 q -43 -125 -221 -229 q 214 -6 83 -50 l 367 189 l 353 175 q 100 4 178 4 q 21 96 21 4 q 103 264 21 161 l 232 431 l 396 431 l 161 124 q 111 43 111 57 q 125 29 111 29 q 196 64 138 29 q 290 142 235 89 q 383 236 361 210 q 538 431 407 264 l 701 431 l 417 60 m 196 -32 q -28 -142 78 -76 q -186 -314 -186 -239 q -153 -337 -186 -337 q 40 -214 -79 -337 l 196 -32 z "},"Ÿ":{"ha":1072,"x_min":215,"x_max":1644,"o":"m 1497 1124 q 1463 1049 1497 1082 q 1385 1015 1426 1015 q 1319 1081 1319 1015 q 1354 1156 1319 1122 q 1431 1188 1389 1188 q 1497 1124 1497 1188 m 1247 1124 q 1213 1049 1247 1082 q 1135 1015 1176 1015 q 1069 1081 1069 1015 q 1104 1156 1069 1122 q 1181 1188 1139 1188 q 1247 1124 1247 1188 m 1644 931 q 1281 542 1483 782 q 1108 329 1204 451 q 921 81 972 154 q 1157 240 1003 126 l 1169 222 l 1163 215 q 878 32 1067 132 q 614 -219 753 -132 q 299 -333 435 -333 q 215 -275 215 -333 q 285 -164 215 -221 q 683 6 397 -69 l 1008 421 l 1001 426 l 897 326 q 553 121 681 121 q 486 151 513 121 q 461 221 461 179 q 496 336 461 279 q 682 546 533 397 q 932 869 932 796 q 822 929 932 929 q 501 824 643 929 q 385 647 385 738 q 411 597 385 615 q 468 579 435 579 q 681 672 569 579 q 824 860 783 760 l 839 856 q 699 651 807 742 q 469 558 586 558 q 394 581 425 558 q 361 649 361 607 q 483 839 361 749 q 817 950 635 950 q 994 808 994 950 q 917 597 994 701 q 760 429 883 551 q 647 310 693 363 q 543 164 543 193 q 569 146 543 146 q 1288 754 718 146 q 1464 932 1401 876 l 1644 931 m 660 -22 q 382 -129 474 -79 q 243 -276 243 -206 q 301 -311 243 -311 q 475 -229 385 -311 q 660 -22 575 -139 z "},"Â":{"ha":879,"x_min":-11,"x_max":1442,"o":"m 1411 1018 l 1340 1067 l 1167 1015 l 1110 1017 l 1419 1206 l 1442 1018 l 1411 1018 m 1317 933 q 1264 863 1300 910 q 1176 736 1232 822 q 947 378 1007 479 l 782 100 q 896 182 839 118 l 910 167 q 765 69 860 96 l 728 0 l 526 0 l 575 74 q 425 160 490 97 q 94 -15 253 -15 q 21 7 51 -15 q -11 75 -11 32 q 19 154 -11 119 q 96 192 53 192 q 138 176 121 192 q 156 135 156 160 q 136 90 156 110 q 90 72 115 72 q 61 81 78 72 q 36 88 44 88 q 21 63 21 88 q 46 21 21 36 q 96 8 68 8 q 408 175 199 8 q 286 469 286 294 q 329 614 286 551 q 454 685 376 685 q 603 611 533 685 q 685 461 663 546 q 806 588 736 518 q 1029 804 969 753 q 1293 938 1189 938 l 1317 933 m 1276 915 q 819 568 1147 910 l 754 500 q 690 432 715 460 q 699 353 699 393 q 686 229 699 288 q 760 328 707 253 q 844 440 815 403 q 1074 715 929 550 q 1222 867 1119 769 q 1263 904 1249 893 l 1276 915 m 665 440 q 594 581 646 519 q 461 650 535 650 q 351 583 393 650 q 317 454 317 526 q 426 192 317 314 q 465 231 439 206 l 504 268 q 606 375 539 303 q 665 440 672 446 m 674 358 q 671 411 674 393 q 443 175 524 244 q 589 93 500 118 q 650 178 631 149 q 674 358 674 213 z "},"Ê":{"ha":976,"x_min":292,"x_max":1372,"o":"m 1342 1018 l 1271 1067 l 1097 1015 l 1040 1017 l 1350 1206 l 1372 1018 l 1342 1018 m 1303 901 q 1092 683 1303 789 q 774 594 942 607 q 765 565 765 581 q 771 550 765 556 q 814 556 789 556 q 879 532 879 556 q 829 511 879 511 q 760 529 793 511 q 546 350 664 489 q 418 106 418 201 q 550 15 418 15 q 835 101 708 15 q 963 283 963 188 q 931 340 963 319 q 865 358 903 358 q 628 267 744 358 q 485 122 536 193 l 471 132 q 631 306 528 235 q 850 383 740 383 q 942 361 906 383 q 988 283 988 335 q 883 107 988 192 q 540 -10 738 -10 q 365 42 432 -10 q 292 203 292 97 q 478 471 292 374 q 747 547 589 529 q 710 592 721 564 l 694 592 q 513 631 590 592 q 415 775 415 681 q 525 942 415 879 q 731 993 618 993 q 892 964 819 993 l 882 947 q 763 965 824 965 q 639 949 700 965 q 510 885 563 929 q 444 761 444 831 q 539 644 444 685 q 700 613 610 614 q 690 657 690 639 q 807 836 690 754 q 1010 929 894 897 q 1211 956 1106 956 q 1303 901 1303 956 m 1279 900 q 1235 933 1279 933 q 851 700 1076 933 q 788 618 814 663 q 1072 697 940 633 q 1279 900 1279 801 z "},"Á":{"ha":879,"x_min":-11,"x_max":1703,"o":"m 1313 1024 l 1272 1025 l 1385 1169 l 1703 1169 l 1313 1024 m 1317 933 q 1264 863 1300 910 q 1176 736 1232 822 q 947 378 1007 479 l 782 100 q 896 182 839 118 l 910 167 q 765 69 860 96 l 728 0 l 526 0 l 575 74 q 425 160 490 97 q 94 -15 253 -15 q 21 7 51 -15 q -11 75 -11 32 q 19 154 -11 119 q 96 192 53 192 q 138 176 121 192 q 156 135 156 160 q 136 90 156 110 q 90 72 115 72 q 61 81 78 72 q 36 88 44 88 q 21 63 21 88 q 46 21 21 36 q 96 8 68 8 q 408 175 199 8 q 286 469 286 294 q 329 614 286 551 q 454 685 376 685 q 603 611 533 685 q 685 461 663 546 q 806 588 736 518 q 1029 804 969 753 q 1293 938 1189 938 l 1317 933 m 1276 915 q 819 568 1147 910 l 754 500 q 690 432 715 460 q 699 353 699 393 q 686 229 699 288 q 760 328 707 253 q 844 440 815 403 q 1074 715 929 550 q 1222 867 1119 769 q 1263 904 1249 893 l 1276 915 m 665 440 q 594 581 646 519 q 461 650 535 650 q 351 583 393 650 q 317 454 317 526 q 426 192 317 314 q 465 231 439 206 l 504 268 q 606 375 539 303 q 665 440 672 446 m 674 358 q 671 411 674 393 q 443 175 524 244 q 589 93 500 118 q 650 178 631 149 q 674 358 674 213 z "},"Ë":{"ha":976,"x_min":292,"x_max":1446,"o":"m 1446 1124 q 1411 1049 1446 1082 q 1335 1015 1376 1015 q 1269 1081 1269 1015 q 1304 1154 1269 1121 q 1381 1188 1339 1188 q 1446 1124 1446 1188 m 1196 1124 q 1161 1049 1196 1082 q 1085 1015 1126 1015 q 1019 1081 1019 1015 q 1054 1154 1019 1121 q 1131 1188 1089 1188 q 1196 1124 1196 1188 m 1303 901 q 1092 683 1303 789 q 774 594 942 607 q 765 565 765 581 q 771 550 765 556 q 814 556 789 556 q 879 532 879 556 q 829 511 879 511 q 760 529 793 511 q 546 350 664 489 q 418 106 418 201 q 550 15 418 15 q 835 101 708 15 q 963 283 963 188 q 931 340 963 319 q 865 358 903 358 q 628 267 744 358 q 485 122 536 193 l 471 132 q 631 306 528 235 q 850 383 740 383 q 942 361 906 383 q 988 283 988 335 q 883 107 988 192 q 540 -10 738 -10 q 365 42 432 -10 q 292 203 292 97 q 478 471 292 374 q 747 547 589 529 q 710 592 721 564 l 694 592 q 513 631 590 592 q 415 775 415 681 q 525 942 415 879 q 731 993 618 993 q 892 964 819 993 l 882 947 q 763 965 824 965 q 639 949 700 965 q 510 885 563 929 q 444 761 444 831 q 539 644 444 685 q 700 613 610 614 q 690 657 690 639 q 807 836 690 754 q 1010 929 894 897 q 1211 956 1106 956 q 1303 901 1303 956 m 1279 900 q 1235 933 1279 933 q 851 700 1076 933 q 788 618 814 663 q 1072 697 940 633 q 1279 900 1279 801 z "},"È":{"ha":976,"x_min":292,"x_max":1303,"o":"m 1208 1019 l 1018 1171 l 1238 1171 l 1239 1021 l 1208 1019 m 1303 901 q 1092 683 1303 789 q 774 594 942 607 q 765 565 765 581 q 771 550 765 556 q 814 556 789 556 q 879 532 879 556 q 829 511 879 511 q 760 529 793 511 q 546 350 664 489 q 418 106 418 201 q 550 15 418 15 q 835 101 708 15 q 963 283 963 188 q 931 340 963 319 q 865 358 903 358 q 628 267 744 358 q 485 122 536 193 l 471 132 q 631 306 528 235 q 850 383 740 383 q 942 361 906 383 q 988 283 988 335 q 883 107 988 192 q 540 -10 738 -10 q 365 42 432 -10 q 292 203 292 97 q 478 471 292 374 q 747 547 589 529 q 710 592 721 564 l 694 592 q 513 631 590 592 q 415 775 415 681 q 525 942 415 879 q 731 993 618 993 q 892 964 819 993 l 882 947 q 763 965 824 965 q 639 949 700 965 q 510 885 563 929 q 444 761 444 831 q 539 644 444 685 q 700 613 610 614 q 690 657 690 639 q 807 836 690 754 q 1010 929 894 897 q 1211 956 1106 956 q 1303 901 1303 956 m 1279 900 q 1235 933 1279 933 q 851 700 1076 933 q 788 618 814 663 q 1072 697 940 633 q 1279 900 1279 801 z "},"Í":{"ha":799,"x_min":-44,"x_max":1531,"o":"m 1140 1024 l 1100 1025 l 1214 1169 l 1531 1169 l 1140 1024 m 1353 953 q 1325 938 1353 943 q 1168 872 1206 904 q 921 535 1038 761 q 1121 656 994 554 l 1133 642 q 904 506 1040 542 l 897 493 q 764 275 799 319 q 690 192 742 246 q 526 65 613 110 q 183 -10 381 -10 q -44 110 -44 -10 q -11 186 -44 153 q 65 221 22 221 q 126 165 126 221 q 107 121 126 139 q 63 104 89 104 q 29 114 47 104 q 3 122 11 122 q -14 97 -14 122 q 50 31 -14 53 q 151 14 97 14 q 429 128 301 14 q 731 506 565 251 q 607 653 607 544 q 721 840 607 769 q 1210 933 814 899 q 1275 950 1229 935 q 1339 963 1315 963 q 1353 953 1353 963 m 1193 914 q 872 867 949 894 q 722 782 785 835 q 640 638 640 714 q 671 561 640 593 q 744 525 700 532 q 1103 863 888 743 l 1193 914 z "},"Î":{"ha":799,"x_min":-44,"x_max":1353,"o":"m 1221 1018 l 1150 1067 l 976 1015 l 919 1017 l 1229 1206 l 1251 1018 l 1221 1018 m 1353 953 q 1325 938 1353 943 q 1168 872 1206 904 q 921 535 1038 761 q 1121 656 994 554 l 1133 642 q 904 506 1040 542 l 897 493 q 764 275 799 319 q 690 192 742 246 q 526 65 613 110 q 183 -10 381 -10 q -44 110 -44 -10 q -11 186 -44 153 q 65 221 22 221 q 126 165 126 221 q 107 121 126 139 q 63 104 89 104 q 29 114 47 104 q 3 122 11 122 q -14 97 -14 122 q 50 31 -14 53 q 151 14 97 14 q 429 128 301 14 q 731 506 565 251 q 607 653 607 544 q 721 840 607 769 q 1210 933 814 899 q 1275 950 1229 935 q 1339 963 1315 963 q 1353 953 1353 963 m 1193 914 q 872 867 949 894 q 722 782 785 835 q 640 638 640 714 q 671 561 640 593 q 744 525 700 532 q 1103 863 888 743 l 1193 914 z "},"Ï":{"ha":799,"x_min":-44,"x_max":1353,"o":"m 1339 1124 q 1304 1049 1339 1082 q 1228 1015 1269 1015 q 1163 1081 1163 1015 q 1197 1154 1163 1121 q 1274 1188 1232 1188 q 1339 1124 1339 1188 m 1126 1124 q 1092 1049 1126 1082 q 1014 1015 1056 1015 q 949 1081 949 1015 q 985 1154 949 1121 q 1060 1188 1019 1188 q 1126 1124 1126 1188 m 1353 953 q 1325 938 1353 943 q 1168 872 1206 904 q 921 535 1038 761 q 1121 656 994 554 l 1133 642 q 904 506 1040 542 l 897 493 q 764 275 799 319 q 690 192 742 246 q 526 65 613 110 q 183 -10 381 -10 q -44 110 -44 -10 q -11 186 -44 153 q 65 221 22 221 q 126 165 126 221 q 107 121 126 139 q 63 104 89 104 q 29 114 47 104 q 3 122 11 122 q -14 97 -14 122 q 50 31 -14 53 q 151 14 97 14 q 429 128 301 14 q 731 506 565 251 q 607 653 607 544 q 721 840 607 769 q 1210 933 814 899 q 1275 950 1229 935 q 1339 963 1315 963 q 1353 953 1353 963 m 1193 914 q 872 867 949 894 q 722 782 785 835 q 640 638 640 714 q 671 561 640 593 q 744 525 700 532 q 1103 863 888 743 l 1193 914 z "},"Ì":{"ha":799,"x_min":-44,"x_max":1353,"o":"m 1143 1019 l 953 1171 l 1172 1171 l 1174 1021 l 1143 1019 m 1353 953 q 1325 938 1353 943 q 1168 872 1206 904 q 921 535 1038 761 q 1121 656 994 554 l 1133 642 q 904 506 1040 542 l 897 493 q 764 275 799 319 q 690 192 742 246 q 526 65 613 110 q 183 -10 381 -10 q -44 110 -44 -10 q -11 186 -44 153 q 65 221 22 221 q 126 165 126 221 q 107 121 126 139 q 63 104 89 104 q 29 114 47 104 q 3 122 11 122 q -14 97 -14 122 q 50 31 -14 53 q 151 14 97 14 q 429 128 301 14 q 731 506 565 251 q 607 653 607 544 q 721 840 607 769 q 1210 933 814 899 q 1275 950 1229 935 q 1339 963 1315 963 q 1353 953 1353 963 m 1193 914 q 872 867 949 894 q 722 782 785 835 q 640 638 640 714 q 671 561 640 593 q 744 525 700 532 q 1103 863 888 743 l 1193 914 z "},"Ó":{"ha":843,"x_min":165,"x_max":1485,"o":"m 1096 1024 l 1056 1025 l 1168 1169 l 1485 1169 l 1096 1024 m 1239 826 q 1100 654 1239 703 l 1094 667 q 1211 832 1211 729 q 1172 901 1211 875 q 1092 925 1138 925 q 692 735 913 925 q 386 393 525 592 q 258 107 258 211 q 296 38 258 63 q 374 15 328 15 q 776 226 557 15 q 1046 669 1046 489 q 979 749 1046 749 q 753 607 888 749 q 639 422 639 483 q 669 394 639 394 q 822 486 738 394 q 926 640 893 563 l 940 635 q 893 543 931 597 q 664 375 781 375 q 611 400 632 375 q 592 457 592 424 q 724 674 592 568 q 964 774 849 774 q 1067 672 1067 774 q 865 286 1067 511 q 650 93 765 175 q 374 -6 511 -6 q 221 64 279 -6 q 165 225 165 129 q 406 660 165 446 q 1064 951 732 951 q 1181 925 1133 951 q 1239 826 1239 892 z "},"Ô":{"ha":843,"x_min":165,"x_max":1239,"o":"m 1203 1018 l 1132 1067 l 958 1015 l 901 1017 l 1211 1206 l 1233 1018 l 1203 1018 m 1239 826 q 1100 654 1239 703 l 1094 667 q 1211 832 1211 729 q 1172 901 1211 875 q 1092 925 1138 925 q 692 735 913 925 q 386 393 525 592 q 258 107 258 211 q 296 38 258 63 q 374 15 328 15 q 776 226 557 15 q 1046 669 1046 489 q 979 749 1046 749 q 753 607 888 749 q 639 422 639 483 q 669 394 639 394 q 822 486 738 394 q 926 640 893 563 l 940 635 q 893 543 931 597 q 664 375 781 375 q 611 400 632 375 q 592 457 592 424 q 724 674 592 568 q 964 774 849 774 q 1067 672 1067 774 q 865 286 1067 511 q 650 93 765 175 q 374 -6 511 -6 q 221 64 279 -6 q 165 225 165 129 q 406 660 165 446 q 1064 951 732 951 q 1181 925 1133 951 q 1239 826 1239 892 z "},"":{"ha":851,"x_min":181,"x_max":1158,"o":"m 1158 726 q 921 493 1158 607 q 642 407 799 433 q 582 401 615 401 q 508 313 532 343 l 633 313 l 622 288 l 489 288 q 443 222 465 258 l 594 222 l 583 196 l 428 196 q 397 94 397 135 q 504 10 397 10 q 771 113 657 10 q 847 246 847 181 q 763 310 847 310 q 701 300 747 310 l 694 324 q 757 332 736 332 q 833 310 803 332 q 867 242 867 286 q 789 101 867 171 q 503 -10 664 -10 q 357 46 408 -10 q 314 196 306 101 l 181 196 l 192 222 l 318 222 q 338 288 324 254 l 181 288 l 192 313 l 349 313 q 415 410 371 361 q 268 564 268 444 q 397 760 268 690 q 639 818 503 818 q 803 793 726 818 l 794 776 q 658 796 735 796 q 513 775 583 796 q 365 697 425 749 q 290 556 290 635 q 336 469 290 506 q 429 428 375 439 q 724 665 536 556 q 1078 785 929 785 q 1158 726 1158 785 m 1142 725 q 1081 768 1142 768 q 817 636 981 768 q 597 419 686 532 q 649 425 615 419 q 911 507 797 453 q 1142 725 1142 622 z "},"Ò":{"ha":843,"x_min":165,"x_max":1239,"o":"m 1099 1019 l 908 1171 l 1128 1171 l 1129 1021 l 1099 1019 m 1239 826 q 1100 654 1239 703 l 1094 667 q 1211 832 1211 729 q 1172 901 1211 875 q 1092 925 1138 925 q 692 735 913 925 q 386 393 525 592 q 258 107 258 211 q 296 38 258 63 q 374 15 328 15 q 776 226 557 15 q 1046 669 1046 489 q 979 749 1046 749 q 753 607 888 749 q 639 422 639 483 q 669 394 639 394 q 822 486 738 394 q 926 640 893 563 l 940 635 q 893 543 931 597 q 664 375 781 375 q 611 400 632 375 q 592 457 592 424 q 724 674 592 568 q 964 774 849 774 q 1067 672 1067 774 q 865 286 1067 511 q 650 93 765 175 q 374 -6 511 -6 q 221 64 279 -6 q 165 225 165 129 q 406 660 165 446 q 1064 951 732 951 q 1181 925 1133 951 q 1239 826 1239 892 z "},"Ú":{"ha":1093,"x_min":331,"x_max":1613,"o":"m 1222 1024 l 1183 1025 l 1296 1169 l 1613 1169 l 1222 1024 m 907 118 q 854 29 854 53 q 872 17 854 17 q 1150 197 947 17 l 1165 182 q 1001 53 1110 129 q 860 -7 917 -7 q 794 25 819 -7 q 771 96 771 56 q 882 303 771 167 l 892 317 l 886 321 q 424 -8 557 -8 q 331 93 331 -8 q 525 410 331 185 l 744 665 q 846 854 846 782 q 747 928 846 928 q 521 863 628 928 q 357 636 357 761 q 378 579 357 601 q 435 556 400 556 q 621 656 526 556 q 726 864 696 736 l 744 860 q 644 640 732 742 q 435 532 549 532 q 363 560 392 532 q 332 632 332 589 q 479 861 332 758 q 750 949 604 949 q 889 913 835 949 q 953 790 953 871 q 807 526 953 696 l 510 175 q 411 32 411 58 q 439 14 411 14 q 896 364 563 14 q 1110 613 1021 496 l 1357 936 l 1533 936 l 907 118 z "},"Û":{"ha":1093,"x_min":331,"x_max":1533,"o":"m 1311 1018 l 1240 1067 l 1067 1015 l 1010 1017 l 1319 1206 l 1342 1018 l 1311 1018 m 907 118 q 854 29 854 53 q 872 17 854 17 q 1150 197 947 17 l 1165 182 q 1001 53 1110 129 q 860 -7 917 -7 q 794 25 819 -7 q 771 96 771 56 q 882 303 771 167 l 892 317 l 886 321 q 424 -8 557 -8 q 331 93 331 -8 q 525 410 331 185 l 744 665 q 846 854 846 782 q 747 928 846 928 q 521 863 628 928 q 357 636 357 761 q 378 579 357 601 q 435 556 400 556 q 621 656 526 556 q 726 864 696 736 l 744 860 q 644 640 732 742 q 435 532 549 532 q 363 560 392 532 q 332 632 332 589 q 479 861 332 758 q 750 949 604 949 q 889 913 835 949 q 953 790 953 871 q 807 526 953 696 l 510 175 q 411 32 411 58 q 439 14 411 14 q 896 364 563 14 q 1110 613 1021 496 l 1357 936 l 1533 936 l 907 118 z "},"Ù":{"ha":1093,"x_min":331,"x_max":1533,"o":"m 1189 1019 l 999 1171 l 1218 1171 l 1219 1021 l 1189 1019 m 907 118 q 854 29 854 53 q 872 17 854 17 q 1150 197 947 17 l 1165 182 q 1001 53 1110 129 q 860 -7 917 -7 q 794 25 819 -7 q 771 96 771 56 q 882 303 771 167 l 892 317 l 886 321 q 424 -8 557 -8 q 331 93 331 -8 q 525 410 331 185 l 744 665 q 846 854 846 782 q 747 928 846 928 q 521 863 628 928 q 357 636 357 761 q 378 579 357 601 q 435 556 400 556 q 621 656 526 556 q 726 864 696 736 l 744 860 q 644 640 732 742 q 435 532 549 532 q 363 560 392 532 q 332 632 332 589 q 479 861 332 758 q 750 949 604 949 q 889 913 835 949 q 953 790 953 871 q 807 526 953 696 l 510 175 q 411 32 411 58 q 439 14 411 14 q 896 364 563 14 q 1110 613 1021 496 l 1357 936 l 1533 936 l 907 118 z "}}}
